<svg xmlns="http://www.w3.org/2000/svg" width="1152" height="384" viewBox="0 0 1152 384"><path d="M0 0 C5.67 4.94 10.57 10.34 15.12 16.31 C20.63 23.34 26.83 26.59 35 29.94 C46.39 34.66 54.11 41.42 59.31 52.75 C64.53 65.89 61.75 77.44 57.51 90.34 C52 107.37 54.24 119.03 60.99 135.23 C70.36 157.82 72.01 180.88 63 204 C56.68 218.42 47.05 230.14 34 239 C33.29 239.51 32.58 240.02 31.86 240.54 C16.21 250.93 -4.17 254.43 -22.6 251.6 C-30.93 249.9 -38.81 247.17 -46.62 243.88 C-66.5 235.6 -83.61 238.31 -103.66 243.62 C-125.56 249.34 -146.3 245.88 -166 235 C-169.67 232.62 -172.84 230.02 -176 227 C-176.84 226.21 -177.68 225.42 -178.54 224.61 C-191.3 211.71 -197.78 194.52 -198.25 176.56 C-198.18 166.51 -196.15 156.86 -193.31 147.25 C-190.39 135.98 -191.34 123.41 -193.54 112.1 C-195.44 99.28 -193.89 87.26 -190 75 C-189.71 74.08 -189.42 73.15 -189.12 72.2 C-182.06 52.39 -164.54 36.12 -146 27 C-138.3 23.87 -130.35 21.82 -122.3 19.82 C-108.39 16.35 -98.89 11.35 -87.12 3.11 C-60.44 -15.31 -27.38 -19.35 0 0 Z " fill="#FD9205" transform="translate(258,69)"/><path d="M0 0 C2 1 2 1 3.38 4.38 C4.81 8.36 4.81 8.36 9 11 C13.23 12.44 14.74 12.12 18.88 10.25 C20.24 9.51 21.6 8.76 23 8 C27.04 6.22 30.15 5.04 34.56 4.81 C35.77 5.4 35.77 5.4 37 6 C36.71 12.2 34.95 17.85 33 23.69 C27.22 41.22 28.95 53.32 35.99 70.23 C45.36 92.82 47.01 115.88 38 139 C31.68 153.42 22.05 165.14 9 174 C8.29 174.51 7.58 175.02 6.86 175.54 C-8.79 185.93 -29.17 189.43 -47.6 186.6 C-55.93 184.9 -63.81 182.17 -71.62 178.88 C-91.5 170.6 -108.61 173.31 -128.66 178.62 C-150.53 184.34 -171.34 180.91 -191 170 C-194.59 167.57 -197.83 164.96 -201 162 C-202.2 160.89 -203.39 159.77 -204.62 158.62 C-207 156 -207 156 -207 154 C-204.52 152.75 -204.52 152.75 -201.25 151.44 C-199.65 150.79 -199.65 150.79 -198.02 150.12 C-193.71 148.52 -191.54 147.87 -187 149 C-184.9 149.98 -182.82 151.01 -180.75 152.06 C-179.67 152.61 -178.59 153.16 -177.48 153.72 C-176.66 154.14 -175.84 154.57 -175 155 C-173 151.24 -173 151.24 -172 148 C-171.01 148 -170.02 148 -169 148 C-171.53 145.4 -173.89 143.07 -176.88 141 C-179 139 -179 139 -179.31 136.5 C-177.28 132.64 -173.86 131.81 -170 130 C-169.01 128.68 -168.02 127.36 -167 126 C-166.01 125.67 -165.02 125.34 -164 125 C-161.05 121.76 -158.97 118.94 -157 115 C-156.34 115 -155.68 115 -155 115 C-155 114.34 -155 113.68 -155 113 C-154.34 113 -153.68 113 -153 113 C-152.67 111.84 -152.34 110.69 -152 109.5 C-151.67 108.34 -151.34 107.19 -151 106 C-150.34 106 -149.68 106 -149 106 C-148.34 108.82 -147.77 111.65 -147.25 114.5 C-145.79 121.72 -144.33 126.77 -139 132 C-133.25 135.64 -127.73 136.45 -121 136 C-115.54 134.52 -110.88 133.22 -107 129 C-102.81 121.63 -101.79 114.88 -103.51 106.53 C-104.05 103.74 -104.17 101.15 -104.19 98.31 C-104.2 97.36 -104.22 96.41 -104.23 95.43 C-104 93 -104 93 -102 91 C-99.17 90.93 -99.17 90.93 -96 92 C-93.58 95.11 -93.58 95.11 -91.25 99.19 C-90.39 100.65 -89.52 102.11 -88.65 103.57 C-88.22 104.31 -87.78 105.05 -87.33 105.81 C-78.76 119.92 -69.65 131.84 -53 136 C-43.82 136.61 -35.95 136.95 -28 132 C-24.27 128.35 -22.01 125.14 -21 120 C-21.18 113.61 -22.06 109.09 -26 104 C-31.2 100.04 -37.2 97.41 -43.06 94.56 C-50.36 90.98 -56.26 86.74 -62 81 C-62.6 78.2 -62.6 78.2 -62 75 C-59.15 71.92 -59.15 71.92 -55.38 68.75 C-46.69 61.14 -42.23 53.98 -39 43 C-38.33 41 -37.67 39 -37 37 C-34.52 38.49 -34.52 38.49 -32 40 C-31.34 38.68 -30.68 37.36 -30 36 C-28.32 32.73 -26.92 30.94 -24.06 28.56 C-20.94 25.95 -19.14 23.44 -17 20 C-14.64 17.64 -13.22 17.51 -10 17 C-10.99 15.68 -11.98 14.36 -13 13 C-11.6 12.53 -10.19 12.05 -8.75 11.56 C-4.72 9.82 -3.18 8.28 -1.44 4.25 C-0.96 2.85 -0.49 1.44 0 0 Z " fill="#8638E9" transform="translate(283,134)"/><path d="M0 0 C8.98 8.07 14.16 20.01 15.12 31.94 C15.6 44.93 11.08 56.86 2.54 66.58 C-0.2 69.52 -2.98 72.12 -6.15 74.58 C-9.26 77.04 -9.26 77.04 -10.02 80.27 C-7.85 87.36 0.66 91.93 6.91 95.33 C11 97.38 15.09 99.39 19.21 101.37 C25.01 104.44 28.56 107.1 30.91 113.33 C32.5 120.63 31.66 124.88 27.91 131.33 C21.51 137.85 16.23 139.62 7.23 139.71 C-6.04 139.51 -13.67 134.92 -23.46 126.39 C-31.4 118.2 -37.2 107.64 -42.32 97.53 C-43.97 95.04 -43.97 95.04 -47.23 94.45 C-48.17 94.41 -49.11 94.37 -50.09 94.33 C-51.35 95.37 -51.35 95.37 -51.22 97.66 C-51.21 99.11 -51.21 99.11 -51.21 100.58 C-51.21 101.54 -51.22 102.49 -51.22 103.47 C-51.09 106.21 -50.64 108.66 -50.09 111.33 C-49.37 119.05 -50.08 124.63 -54.09 131.33 C-59.37 136.67 -65.07 138.96 -72.46 139.64 C-79.91 139 -85.9 136.76 -91.09 131.33 C-99.56 116.45 -96.79 97.02 -94.15 80.64 C-91.9 66.6 -93.61 55.85 -100.59 43.58 C-106.18 33.57 -109.6 25.03 -108.09 13.33 C-104.61 2.99 -98.77 -4.06 -89.09 -8.92 C-61.18 -20.97 -24.06 -19.24 0 0 Z " fill="#FEFDFD" transform="translate(231.0859375,131.66796875)"/><path d="M0 0 C13.27 10.81 21.56 25.62 23.44 42.75 C24.66 61.4 21.38 79.53 9 94.25 C7.82 95.41 6.65 96.56 5.44 97.75 C4.75 98.43 4.06 99.12 3.35 99.82 C-8.79 111.35 -23.86 115.52 -40.31 115.38 C-41.63 115.37 -42.96 115.36 -44.32 115.35 C-54.53 115.12 -62.51 113.73 -71.56 108.75 C-72.58 108.22 -73.59 107.69 -74.64 107.14 C-89.38 98.67 -97.98 83.8 -102.56 67.75 C-105.25 46.11 -102.76 26.6 -89.56 8.75 C-67.23 -18.19 -27.18 -19.96 0 0 Z M-61.94 26.06 C-69.95 37.31 -70.39 47.22 -69.56 60.75 C-67.8 69.46 -63.64 75.54 -56.62 81.06 C-48.1 85.76 -39.13 85.83 -29.81 83.62 C-20.7 79.61 -16.92 75.6 -12.69 66.75 C-8.86 56.58 -9.62 44.98 -13.11 34.84 C-16.49 27.66 -22.24 21.1 -29.85 18.31 C-42.31 15.74 -52.79 17.09 -61.94 26.06 Z " fill="#FC787A" transform="translate(694.5625,145.25)"/><path d="M0 0 C0.96 -0.01 1.91 -0.01 2.9 -0.02 C4.92 -0.02 6.93 -0.02 8.95 -0.01 C11.99 -0 15.04 -0.03 18.08 -0.06 C34.59 -0.12 49.01 2.14 61.64 13.68 C69.78 23.26 72.65 33.99 71.83 46.43 C70.19 58.24 64.47 66.58 55.83 74.43 C54.6 75.35 54.6 75.35 53.34 76.28 C52.59 77.35 52.59 77.35 51.83 78.43 C53.16 81.42 53.16 81.42 55.83 84.43 C56.85 85.7 57.87 86.97 58.93 88.27 C60.63 90.33 62.34 92.38 64.05 94.42 C72.54 104.69 72.54 104.69 73.27 111.56 C72.63 117.26 71 119.38 66.77 123.18 C61.6 127.15 57.23 127.17 50.83 126.43 C38.83 120.96 32.36 107.35 25.44 96.7 C24.76 95.67 24.08 94.63 23.38 93.56 C22.77 92.62 22.16 91.69 21.53 90.72 C19.87 88.21 19.87 88.21 16.83 86.43 C11.74 86.24 7.76 86.2 2.83 87.43 C1.26 93.79 1.54 100.6 1.4 107.14 C1.17 113.65 0.26 118.14 -4.54 122.68 C-9.83 126.21 -13.77 126.93 -20.17 126.43 C-25.49 124.45 -29.71 121.34 -32.29 116.18 C-33.33 112.92 -33.42 110.21 -33.41 106.79 C-33.41 105.46 -33.42 104.13 -33.42 102.76 C-33.41 101.32 -33.41 99.89 -33.4 98.41 C-33.4 96.91 -33.4 95.42 -33.4 93.88 C-33.39 90.7 -33.39 87.53 -33.37 84.36 C-33.36 79.57 -33.35 74.79 -33.35 70.01 C-33.3 16.74 -33.3 16.74 -24.27 7.49 C-16.97 1.51 -9.19 -0.03 0 0 Z M3.83 30.43 C0.98 34.71 1.5 38.9 1.52 43.87 C1.5 44.83 1.49 45.78 1.47 46.76 C1.47 52.05 1.57 54.09 4.83 58.43 C8.54 58.84 11.88 58.99 15.58 58.93 C17.05 58.96 17.05 58.96 18.54 58.98 C24.7 58.95 28.69 58.16 33.83 54.43 C36.87 50.69 37.67 47.23 37.83 42.43 C36.67 37.29 35.92 34.34 31.83 30.93 C26.66 28.35 22.67 28.27 16.89 28.25 C15.3 28.23 13.7 28.22 12.05 28.2 C7.72 28.16 7.72 28.16 3.83 30.43 Z " fill="#FD8D06" transform="translate(398.16796875,133.56640625)"/><path d="M0 0 C9.97 3.78 14.81 11.93 20.5 20.44 C22.65 23.64 24.81 26.82 27 30 C27.54 30.8 28.08 31.59 28.64 32.41 C30 34.35 31.49 36.18 33 38 C37.68 36.44 39.45 32.28 42.06 28.31 C43.23 26.58 44.41 24.84 45.58 23.11 C47.21 20.68 48.84 18.24 50.46 15.79 C59.45 2.19 59.45 2.19 67 0 C73.88 -0.97 77.5 0.9 83 5 C86.54 9.72 86.84 12.17 87 18 C84.9 24.26 81.25 29.11 77.31 34.31 C76.69 35.15 76.06 35.99 75.41 36.86 C70.09 43.96 64.55 50.88 58.94 57.75 C56.74 60.77 56.74 60.77 57.1 63.82 C58.2 67.7 59.9 69.93 62.44 73.06 C63.34 74.2 64.24 75.33 65.18 76.5 C66.11 77.65 67.04 78.81 68 80 C88.72 106.62 88.72 106.62 88 115 C86.15 120.14 83.38 122.81 79 126 C73.65 127.78 68.15 127.67 62.81 126 C53.28 119.22 47.5 107.86 41.32 98.21 C40.55 97.02 39.78 95.84 38.98 94.62 C38.29 93.54 37.6 92.46 36.88 91.35 C36.26 90.58 35.64 89.8 35 89 C34.01 89 33.02 89 32 89 C30.3 90.9 30.3 90.9 28.71 93.43 C28.08 94.36 27.45 95.3 26.81 96.27 C26.15 97.27 25.49 98.28 24.81 99.31 C23.45 101.34 22.09 103.37 20.73 105.39 C19.49 107.26 18.24 109.13 17 111 C8.57 123.67 8.57 123.67 1 127 C-4.07 127.88 -8.11 127.39 -12.88 125.31 C-17.72 121.73 -19.62 119.65 -21 113.69 C-21 102.71 -12.55 95.15 -6 87 C-3.4 83.65 -0.81 80.29 1.76 76.91 C3.14 75.12 4.53 73.34 5.96 71.59 C9.17 67.57 10 66.36 10 61 C8.26 58.14 8.26 58.14 5.81 55.25 C4.9 54.11 4 52.98 3.06 51.8 C2.05 50.55 1.04 49.29 0 48 C-19.55 23.09 -19.55 23.09 -20.62 15.69 C-19.75 10.51 -18.45 7.34 -14.56 3.75 C-9.46 0.26 -6.12 -0.54 0 0 Z " fill="#DF46C5" transform="translate(738,133)"/><path d="M0 0 C2.88 3.84 3.01 5.71 2.88 10.56 C1.72 16.4 0.87 18.71 -4.05 22.1 C-10.88 25.41 -18.77 24.6 -26.19 24.62 C-29.24 24.65 -32.3 24.68 -35.36 24.73 C-37.38 24.74 -37.38 24.74 -39.44 24.74 C-42.98 25 -46.38 25.38 -49 28 C-50.07 33.24 -50.62 37.85 -49 43 C-43.63 45.23 -38.16 44.58 -32.44 44.25 C-29.33 44.16 -26.23 44.08 -23.12 44.02 C-21.04 43.91 -21.04 43.91 -18.92 43.81 C-12.92 44.1 -9.22 45.78 -5 50 C-3.58 54.26 -3.59 57.53 -4 62 C-8.49 68.24 -8.49 68.24 -12 70 C-14.25 70.13 -16.51 70.2 -18.77 70.25 C-20.13 70.28 -21.5 70.31 -22.9 70.35 C-25.79 70.41 -28.67 70.46 -31.55 70.52 C-32.92 70.55 -34.29 70.59 -35.7 70.62 C-37.58 70.66 -37.58 70.66 -39.5 70.7 C-43.02 71 -45.79 71.54 -49 73 C-49.84 76.27 -49.84 76.27 -49.56 80 C-49.54 81.26 -49.52 82.52 -49.5 83.81 C-49.25 85.39 -49.25 85.39 -49 87 C-45.53 89.31 -44.04 89.28 -39.93 89.38 C-38.73 89.41 -37.52 89.45 -36.27 89.48 C-35.01 89.51 -33.74 89.54 -32.44 89.56 C-7.38 90.18 -7.38 90.18 0 96 C3.01 100.32 3.64 103.79 3 109 C1.16 113.52 -0.3 115.55 -4.43 118.17 C-10.04 120.42 -14.58 120.58 -20.55 120.53 C-22.19 120.54 -22.19 120.54 -23.87 120.54 C-26.17 120.55 -28.48 120.54 -30.79 120.52 C-34.29 120.5 -37.79 120.52 -41.29 120.55 C-43.55 120.54 -45.8 120.54 -48.05 120.53 C-49.08 120.54 -50.12 120.55 -51.18 120.56 C-59.77 120.45 -67.08 118.47 -74.38 113.88 C-80.84 106.79 -83.11 98.92 -83.18 89.47 C-83.19 87.92 -83.2 86.38 -83.22 84.78 C-83.22 83.09 -83.23 81.4 -83.24 79.71 C-83.24 78.86 -83.25 78.01 -83.25 77.13 C-83.27 72.6 -83.29 68.08 -83.3 63.55 C-83.31 58.9 -83.34 54.25 -83.38 49.6 C-83.41 46 -83.41 42.41 -83.42 38.81 C-83.42 37.1 -83.43 35.38 -83.45 33.67 C-83.68 11.68 -83.68 11.68 -75.75 3.06 C-60.22 -9.62 -16.04 -12.89 0 0 Z " fill="#833CF4" transform="translate(1021,139)"/><path d="M0 0 C0.98 -0 1.95 -0 2.96 -0 C5.02 -0 7.08 -0 9.13 0 C12.24 0.01 15.35 0 18.46 -0 C48.84 -0.02 48.84 -0.02 57.52 5.13 C61.72 9.51 63.43 13.42 63.69 19.55 C62.98 30.17 55.29 38.19 49.02 46.21 C46.91 48.9 44.87 51.64 42.83 54.38 C40.71 57.21 38.58 60.04 36.45 62.87 C35.01 64.79 33.57 66.71 32.13 68.64 C30.68 70.58 29.23 72.51 27.77 74.43 C25.84 76.97 23.93 79.52 22.02 82.07 C21.39 82.89 20.77 83.71 20.12 84.55 C19.25 85.72 19.25 85.72 18.36 86.91 C17.57 87.95 17.57 87.95 16.77 89.01 C15.37 91.39 14.91 93.42 14.52 96.13 C15.74 96.12 16.96 96.11 18.22 96.1 C27.11 96.04 36 96.07 44.89 96.38 C46.4 96.43 47.92 96.48 49.48 96.52 C55.91 97.49 58.67 100.01 62.52 105.13 C63.62 110.41 63.91 114.24 61.52 119.13 C58.02 123.18 54.96 125.91 49.44 126.41 C48.23 126.43 47.02 126.44 45.78 126.46 C44.41 126.47 43.03 126.49 41.62 126.51 C39.4 126.53 39.4 126.53 37.13 126.54 C35.6 126.55 34.08 126.56 32.5 126.57 C29.27 126.59 26.03 126.61 22.8 126.61 C17.86 126.63 12.93 126.69 7.99 126.76 C4.85 126.77 1.71 126.78 -1.43 126.79 C-2.91 126.81 -4.38 126.84 -5.89 126.86 C-14.75 126.83 -19.71 125.97 -26.48 120.13 C-30.24 115.2 -30.89 110.23 -30.48 104.13 C-28.65 98.3 -26.29 94.15 -22.42 89.45 C-21.44 88.23 -20.45 87.01 -19.44 85.76 C-18.46 84.56 -17.49 83.37 -16.48 82.13 C-14.87 80.06 -13.27 77.97 -11.67 75.88 C-8.27 71.45 -4.85 67.03 -1.4 62.62 C0.98 59.56 3.36 56.5 5.73 53.43 C7.51 51.13 9.31 48.85 11.11 46.57 C12.23 45.13 13.34 43.69 14.45 42.26 C15.45 40.98 16.45 39.71 17.48 38.39 C18.15 37.32 18.82 36.24 19.52 35.13 C19.02 33.15 19.02 33.15 18.52 31.13 C14.86 30.56 14.86 30.56 10.39 30.7 C8.69 30.69 7 30.68 5.31 30.67 C2.64 30.68 -0.03 30.7 -2.7 30.72 C-5.28 30.73 -7.85 30.72 -10.43 30.7 C-11.97 30.71 -13.51 30.72 -15.1 30.73 C-20.6 29.98 -23.07 28.44 -27.48 25.13 C-30.75 19.88 -30.83 16.11 -29.48 10.13 C-27.44 5.14 -24.33 3.32 -19.48 1.13 C-12.97 0.17 -6.57 -0.01 0 0 Z " fill="#BE42E0" transform="translate(865.484375,132.8671875)"/><path d="M0 0 C5.67 4.94 10.57 10.34 15.12 16.31 C20.63 23.34 26.83 26.59 35 29.94 C46.39 34.66 54.11 41.42 59.31 52.75 C61.89 59.25 62.09 64.13 62 71 C61.17 70.94 60.34 70.88 59.48 70.82 C55.25 71.04 52.21 72.29 48.31 73.94 C47.01 74.48 45.71 75.03 44.36 75.59 C43.25 76.06 42.14 76.52 41 77 C38 78 38 78 34.5 76.75 C30.37 74.68 28.44 73.18 26.81 68.81 C26.41 67.42 26.41 67.42 26 66 C25.44 67.26 24.89 68.52 24.31 69.81 C22.04 73.93 21.11 75.1 17 77 C16.01 77.66 15.02 78.32 14 79 C14.66 80.32 15.32 81.64 16 83 C14.48 83.22 14.48 83.22 12.94 83.44 C8.11 85.35 6.53 87.7 3.68 91.91 C2 94 2 94 -2 96 C-3.11 98.39 -3.11 98.39 -4 101 C-4.99 102.32 -5.98 103.64 -7 105 C-8.98 104.5 -8.98 104.5 -11 104 C-12.45 101.11 -12.46 98.27 -12.81 95.06 C-13.8 87.28 -15.81 80.48 -19.25 73.45 C-20 71 -20 71 -18 67 C-10.91 62.77 -10.91 62.77 -6 64 C-4.97 65.65 -3.97 67.32 -3 69 C-2.01 69.33 -1.02 69.66 0 70 C0.25 68.68 0.5 67.36 0.75 66 C2.06 60.21 3.6 54.58 8.75 51.19 C9.86 50.6 9.86 50.6 11 50 C11 49.01 11 48.02 11 47 C5.66 49.37 4.22 52.74 2 58 C0.9 61.31 -0.06 64.63 -1 68 C-3.68 63.99 -4.93 59.68 -6.49 55.13 C-8.23 51.52 -9.61 50.1 -13 48 C-16.49 46.75 -16.49 46.75 -20.19 45.88 C-26.8 44.2 -26.8 44.2 -29 42 C-28.5 41.01 -28.5 41.01 -28 40 C-34.75 29.32 -44.08 22.52 -56.29 19.42 C-71.86 17.01 -85.71 20.54 -100.4 25.48 C-110.48 28.86 -116.95 30.07 -127 26 C-128.22 26 -129.43 26 -130.69 26 C-131.78 26 -132.87 26 -134 26 C-134.66 25.34 -135.32 24.68 -136 24 C-129.92 21.89 -123.89 20.19 -117.62 18.69 C-105.61 15.61 -97.21 10.17 -87.12 3.11 C-60.44 -15.31 -27.38 -19.35 0 0 Z " fill="#FDB521" transform="translate(258,69)"/><path d="M0 0 C3.76 3.9 5.19 7.73 6.97 12.77 C10.66 22.86 14.63 33.65 23.79 40.02 C28.07 41.39 29.84 40.95 33.91 39.02 C43.09 30.32 47.11 19.32 50.54 7.37 C52.83 1.76 55.79 -0.5 61.29 -2.86 C67.45 -4.35 70.82 -3.87 76.6 -1.42 C81.51 2.19 83.47 6.22 84.41 12.21 C82.07 30.03 72.38 45.51 59.91 58.02 C58.63 59.47 57.36 60.92 56.1 62.39 C53.46 65.39 50.77 68.24 47.91 71.02 C44.69 74.23 45.77 82.45 45.73 86.71 C45.71 88.15 45.69 89.59 45.66 91.07 C45.62 94.08 45.59 97.09 45.57 100.1 C45.54 101.54 45.51 102.98 45.48 104.46 C45.47 105.77 45.46 107.07 45.44 108.42 C44.57 114.31 41.89 117.23 37.35 120.89 C31.92 123.49 27.82 123.99 21.91 123.02 C17.06 120.69 14.06 117.34 10.91 113.02 C9.84 108.74 9.77 105.12 9.73 100.71 C9.7 98.26 9.7 98.26 9.66 95.76 C9.63 93.17 9.6 90.58 9.58 87.99 C9.57 85.48 9.53 82.97 9.48 80.46 C9.47 78.96 9.46 77.46 9.44 75.92 C8.68 70.33 6.33 68.19 2.1 64.71 C-12.7 52.23 -24.72 33.57 -29.09 14.71 C-29.09 8.58 -27.57 4.53 -23.28 0.14 C-15.59 -4.98 -7.88 -5.05 0 0 Z " fill="#FC7E42" transform="translate(505.08984375,136.98046875)"/><path d="M0 0 C4.59 1.56 5.55 4.1 7.92 8.26 C8.78 9.72 9.64 11.18 10.5 12.63 C10.94 13.37 11.37 14.11 11.82 14.87 C14.67 19.52 17.94 23.88 21.14 28.28 C25.17 33.82 25.17 33.82 25.17 36.07 C25.83 37.06 26.49 38.05 27.17 39.07 C26.84 40.06 26.51 41.05 26.17 42.07 C26.83 42.07 27.49 42.07 28.17 42.07 C29.68 43.97 29.68 43.97 31.3 46.45 C31.84 47.26 32.37 48.07 32.93 48.91 C34.17 51.07 34.17 51.07 34.17 53.07 C26.91 58.07 26.91 58.07 23.17 58.07 C22.51 59.39 21.85 60.71 21.17 62.07 C19.85 62.4 18.53 62.73 17.17 63.07 C18.82 65.38 20.47 67.69 22.17 70.07 C20.73 69.95 19.28 69.83 17.8 69.7 C16.27 69.82 14.74 69.95 13.17 70.07 C10.84 73.99 11.13 77.62 11.17 82.07 C10.4 82.05 9.62 82.03 8.82 82 C-4.93 81.77 -17.41 84.3 -30.58 87.95 C-51.94 93.59 -72.73 89.68 -91.83 79.07 C-95.42 76.64 -98.66 74.03 -101.83 71.07 C-103.02 69.96 -104.22 68.85 -105.45 67.7 C-107.83 65.07 -107.83 65.07 -107.83 63.07 C-105.34 61.82 -105.34 61.82 -102.08 60.51 C-101.01 60.08 -99.94 59.64 -98.84 59.2 C-94.54 57.6 -92.37 56.94 -87.83 58.07 C-85.73 59.06 -83.64 60.08 -81.58 61.14 C-80.5 61.68 -79.42 62.23 -78.31 62.8 C-77.49 63.22 -76.67 63.64 -75.83 64.07 C-73.83 60.31 -73.83 60.31 -72.83 57.07 C-71.84 57.07 -70.85 57.07 -69.83 57.07 C-72.35 54.48 -74.72 52.15 -77.7 50.07 C-79.83 48.07 -79.83 48.07 -80.14 45.57 C-78.11 41.71 -74.69 40.89 -70.83 39.07 C-69.84 37.75 -68.85 36.43 -67.83 35.07 C-66.84 34.74 -65.85 34.41 -64.83 34.07 C-61.87 30.83 -59.8 28.01 -57.83 24.07 C-57.17 24.07 -56.51 24.07 -55.83 24.07 C-55.83 23.41 -55.83 22.75 -55.83 22.07 C-55.17 22.07 -54.51 22.07 -53.83 22.07 C-53.5 20.92 -53.17 19.76 -52.83 18.57 C-52.5 17.42 -52.17 16.26 -51.83 15.07 C-51.17 15.07 -50.51 15.07 -49.83 15.07 C-49.17 17.89 -48.6 20.73 -48.08 23.57 C-46.61 30.79 -45.16 35.85 -39.83 41.07 C-34.08 44.71 -28.56 45.52 -21.83 45.07 C-16.37 43.6 -11.71 42.29 -7.83 38.07 C-3.63 30.71 -2.62 23.95 -4.34 15.6 C-4.88 12.82 -5 10.22 -5.02 7.39 C-5.03 6.43 -5.04 5.48 -5.06 4.5 C-4.71 0.8 -3.66 0.1 0 0 Z " fill="#C13AC0" transform="translate(183.828125,224.92578125)"/><path d="M0 0 C1.09 0.7 1.09 0.7 2.2 1.41 C5.8 4.08 5.8 4.08 8.32 3.91 C10.63 14.76 8.49 26.27 6.79 37.09 C6 43.45 5.81 49.84 5.57 56.24 C5.44 58.06 5.44 58.06 5.32 59.91 C4.99 59.91 4.66 59.91 4.32 59.91 C4.32 57.93 4.32 55.95 4.32 53.91 C3.66 53.91 3 53.91 2.32 53.91 C1.99 55.06 1.66 56.22 1.32 57.41 C0.99 58.56 0.66 59.72 0.32 60.91 C-0.34 60.91 -1 60.91 -1.68 60.91 C-1.68 61.57 -1.68 62.23 -1.68 62.91 C-2.34 62.91 -3 62.91 -3.68 62.91 C-3.97 63.81 -4.26 64.72 -4.55 65.66 C-5.76 69.13 -6.96 70.52 -9.68 72.91 C-10.34 73.57 -11 74.23 -11.68 74.91 C-12.67 74.41 -12.67 74.41 -13.68 73.91 C-14.34 75.23 -15 76.55 -15.68 77.91 C-18.62 79.75 -21.58 81.36 -24.68 82.91 C-24.97 85.26 -24.97 85.26 -23.68 87.91 C-21.13 90.09 -18.41 91.95 -15.68 93.91 C-15.68 94.57 -15.68 95.23 -15.68 95.91 C-16.67 95.91 -17.66 95.91 -18.68 95.91 C-19.17 97.89 -19.17 97.89 -19.68 99.91 C-20.34 100.9 -21 101.89 -21.68 102.91 C-25.5 102.91 -27.38 101.45 -30.62 99.34 C-35.4 96.46 -35.4 96.46 -40.68 96.91 C-43.36 98.21 -46.03 99.54 -48.68 100.91 C-51.8 102.16 -51.8 102.16 -54.68 101.91 C-65.73 90.86 -69.55 74.27 -69.99 59.16 C-69.85 49.01 -67.99 38.51 -64.68 28.91 C-61.68 26.91 -61.68 26.91 -57.68 26.91 C-52.78 26.53 -51.02 24.33 -47.68 20.91 C-46.69 20.91 -45.7 20.91 -44.68 20.91 C-44.02 19.59 -43.36 18.27 -42.68 16.91 C-39.1 14.22 -35.57 12.09 -31.68 9.91 C-30.57 9.23 -30.57 9.23 -29.45 8.54 C-25.97 6.49 -22.44 4.59 -18.87 2.72 C-17.52 2 -16.17 1.29 -14.79 0.55 C-9.54 -1.55 -5.31 -2.17 0 0 Z " fill="#F9645E" transform="translate(129.6796875,186.09375)"/><path d="M0 0 C4.16 2.8 7.62 6.42 9.88 10.94 C9.98 13.38 10.01 15.82 10.02 18.26 C10.02 19.81 10.03 21.36 10.04 22.95 C10.04 23.78 10.04 24.62 10.04 25.47 C10.05 28.07 10.07 30.67 10.09 33.26 C10.14 40.65 10.19 48.03 10.2 55.42 C10.21 59.94 10.24 64.45 10.28 68.97 C10.29 70.69 10.3 72.41 10.3 74.13 C10.3 76.54 10.32 78.95 10.34 81.35 C10.35 82.73 10.36 84.1 10.36 85.51 C10.61 88.97 10.61 88.97 12.66 91.35 C16.46 94.07 20.17 94.05 24.67 94.04 C25.8 94.06 26.92 94.07 28.08 94.09 C30.43 94.11 32.78 94.12 35.12 94.1 C43.07 94.25 47.12 95.35 52.88 100.94 C55.26 105.71 55.55 109.73 54.88 114.94 C52.33 119.94 49.34 123.12 43.88 124.94 C40.75 125.06 37.65 125.13 34.53 125.14 C33.6 125.15 32.67 125.15 31.72 125.16 C29.76 125.17 27.79 125.17 25.83 125.18 C22.85 125.19 19.87 125.22 16.89 125.25 C14.98 125.26 13.07 125.26 11.15 125.27 C10.27 125.28 9.39 125.29 8.49 125.3 C-1.54 125.27 -9.61 122.69 -17.12 115.94 C-23.11 108 -24.37 100.1 -24.38 90.33 C-24.39 89.12 -24.39 89.12 -24.39 87.88 C-24.4 85.24 -24.4 82.6 -24.39 79.96 C-24.39 78.11 -24.39 76.26 -24.4 74.41 C-24.4 70.54 -24.4 66.68 -24.39 62.81 C-24.37 57.87 -24.38 52.93 -24.39 47.98 C-24.4 44.17 -24.4 40.35 -24.39 36.53 C-24.39 34.71 -24.39 32.89 -24.4 31.06 C-24.4 28.51 -24.39 25.96 -24.38 23.41 C-24.38 21.97 -24.38 20.52 -24.38 19.03 C-24.03 13.39 -23.45 8.6 -19.88 4.12 C-13.54 -0.92 -7.94 -2.7 0 0 Z " fill="#6933F8" transform="translate(1057.125,134.0625)"/><path d="M0 0 C2 1 2 1 3.38 4.38 C4.81 8.36 4.81 8.36 9 11 C13.23 12.44 14.74 12.12 18.88 10.25 C20.24 9.51 21.6 8.76 23 8 C27.04 6.22 30.15 5.04 34.56 4.81 C35.37 5.2 36.17 5.6 37 6 C36.71 12.2 34.95 17.85 33 23.69 C29.13 35.41 27.41 44.98 30.94 57.06 C31.79 60.34 31.79 60.34 32 63 C28.88 65.19 28.88 65.19 25 66 C24.01 66.66 23.02 67.32 22 68 C22.4 69.92 22.4 69.92 22.81 71.88 C22.87 73.24 22.94 74.6 23 76 C17.75 79.41 12.92 81.01 6.75 81.38 C1 81.86 -3.39 83.38 -8.31 86.44 C-11.61 88.36 -15.04 89.67 -18.6 91.04 C-20.78 91.91 -22.9 92.95 -25 94 C-25.66 93.01 -26.32 92.02 -27 91 C-29.35 90.27 -29.35 90.27 -32 89.94 C-36.79 89.21 -36.79 89.21 -39 87 C-42.85 87.32 -46.3 87.75 -49.94 89.06 C-54.58 88.97 -56.84 86.34 -60.24 83.37 C-62 81 -62 81 -62.67 78.11 C-61.67 73.45 -58.98 71.78 -55.38 68.75 C-46.69 61.14 -42.23 53.98 -39 43 C-38 40 -38 40 -37 37 C-35.35 37.99 -33.7 38.98 -32 40 C-31.34 38.68 -30.68 37.36 -30 36 C-28.32 32.73 -26.92 30.94 -24.06 28.56 C-20.94 25.95 -19.14 23.44 -17 20 C-14.64 17.64 -13.22 17.51 -10 17 C-10.99 15.68 -11.98 14.36 -13 13 C-10.9 12.29 -10.9 12.29 -8.75 11.56 C-4.72 9.82 -3.18 8.28 -1.44 4.25 C-0.96 2.85 -0.49 1.44 0 0 Z " fill="#DA47D7" transform="translate(283,134)"/><path d="M0 0 C11.47 8.66 18.6 22.75 20.72 36.9 C22.48 56.28 19.61 73.32 8.24 89.51 C6.61 91.44 4.8 93.23 3 95 C2.31 95.68 1.62 96.37 0.91 97.07 C-11.22 108.6 -26.3 112.77 -42.75 112.62 C-44.73 112.61 -44.73 112.61 -46.75 112.6 C-60.89 112.29 -71.62 108.53 -83 100 C-82.01 99.5 -82.01 99.5 -81 99 C-81 98.34 -81 97.68 -81 97 C-80.34 97 -79.68 97 -79 97 C-78.34 95.68 -77.68 94.36 -77 93 C-76.5 92.01 -76.5 92.01 -76 91 C-74.02 90.5 -74.02 90.5 -72 90 C-70.68 89.01 -69.36 88.02 -68 87 C-68 86.01 -68 85.02 -68 84 C-66.02 82.97 -64.02 81.97 -62 81 C-62 80.34 -62 79.68 -62 79 C-62.66 79 -63.32 79 -64 79 C-63.67 77.68 -63.34 76.36 -63 75 C-61.99 75.52 -61.99 75.52 -60.95 76.06 C-60.06 76.51 -59.17 76.97 -58.25 77.44 C-57.37 77.89 -56.49 78.34 -55.58 78.81 C-48.15 82.24 -39.96 81.73 -32.19 79.81 C-23.65 76.12 -20.14 72.27 -16.16 64.04 C-11.77 52.57 -13.48 40.13 -18 29 C-18.96 27.31 -19.95 25.64 -21 24 C-17.27 21.97 -15.33 21 -11 21 C-10.5 19.51 -10.5 19.51 -10 18 C-9.01 17.67 -8.02 17.34 -7 17 C-6.5 15.51 -6.5 15.51 -6 14 C-5.01 13.67 -4.02 13.34 -3 13 C-2.31 11.34 -1.64 9.68 -1 8 C-0.34 8 0.32 8 1 8 C0.5 7.01 0.5 7.01 0 6 C-0.04 4 -0.04 2 0 0 Z " fill="#F74BA3" transform="translate(697,148)"/><path d="M0 0 C9.97 3.78 14.81 11.93 20.5 20.44 C22.65 23.64 24.81 26.82 27 30 C27.54 30.8 28.08 31.59 28.64 32.41 C30 34.35 31.49 36.18 33 38 C37.68 36.44 39.45 32.28 42.06 28.31 C43.23 26.58 44.41 24.84 45.58 23.11 C47.21 20.68 48.84 18.24 50.46 15.79 C59.45 2.19 59.45 2.19 67 0 C73.88 -0.97 77.5 0.9 83 5 C86.54 9.72 86.84 12.17 87 18 C84.83 24.63 81.85 28.87 75.69 32.19 C74.3 32.95 74.3 32.95 72.89 33.73 C70 35 70 35 66.71 35.49 C65.37 35.74 65.37 35.74 64 36 C63.67 36.99 63.34 37.98 63 39 C60 40 57 41 54 42 C51.62 44.04 51.62 44.04 50 46 C49.34 46 48.68 46 48 46 C48 46.66 48 47.32 48 48 C47.34 48 46.68 48 46 48 C46 48.66 46 49.32 46 50 C44.34 51.02 42.68 52.02 41 53 C40.5 53.99 40.5 53.99 40 55 C39.34 55 38.68 55 38 55 C38 56.32 38 57.64 38 59 C35.7 60.7 35.7 60.7 32.69 62.25 C31.7 62.77 30.72 63.29 29.7 63.83 C27 65 27 65 24 65 C24 65.66 24 66.32 24 67 C22.82 67.4 22.82 67.4 21.62 67.81 C20.33 68.4 20.33 68.4 19 69 C18.57 70.18 18.57 70.18 18.12 71.38 C16.17 75.93 11.75 77.16 7.46 79.22 C1.1 82.23 1.1 82.23 -4 87 C-4 83.14 -2.83 82.24 -0.38 79.31 C0.35 78.43 1.07 77.54 1.82 76.63 C2.54 75.76 3.26 74.9 4 74 C8.86 68.32 8.86 68.32 10 61 C8.26 58.14 8.26 58.14 5.81 55.25 C4.9 54.11 4 52.98 3.06 51.8 C2.05 50.55 1.04 49.29 0 48 C-19.55 23.09 -19.55 23.09 -20.62 15.69 C-19.75 10.51 -18.45 7.34 -14.56 3.75 C-9.46 0.26 -6.12 -0.54 0 0 Z " fill="#F64CBD" transform="translate(738,133)"/><path d="M0 0 C0.99 0.5 0.99 0.5 2 1 C0.73 6.1 -2.08 9.5 -5.19 13.62 C-5.81 14.46 -6.42 15.29 -7.06 16.15 C-10.31 20.5 -13.62 24.81 -16.97 29.08 C-17.61 29.88 -18.24 30.69 -18.89 31.52 C-20.11 33.06 -21.33 34.59 -22.56 36.12 C-27.34 41.91 -27.34 41.91 -29 49 C-27.78 48.99 -26.55 48.98 -25.29 48.96 C-16.4 48.9 -7.51 48.93 1.38 49.25 C2.89 49.3 4.4 49.34 5.96 49.39 C12.39 50.36 15.16 52.87 19 58 C20.11 63.28 20.39 67.11 18 72 C14.5 76.05 11.44 78.78 5.92 79.28 C4.71 79.29 3.51 79.31 2.26 79.32 C0.89 79.34 -0.48 79.36 -1.89 79.38 C-4.12 79.39 -4.12 79.39 -6.39 79.41 C-7.91 79.42 -9.44 79.43 -11.01 79.44 C-14.25 79.46 -17.48 79.47 -20.71 79.48 C-25.65 79.5 -30.59 79.56 -35.52 79.62 C-38.66 79.64 -41.81 79.65 -44.95 79.66 C-46.42 79.68 -47.89 79.71 -49.41 79.73 C-58.26 79.69 -63.23 78.84 -70 73 C-73.76 68.07 -74.41 63.1 -74 57 C-72.75 52.62 -72.75 52.62 -71 49 C-67 48 -67 48 -65 48 C-65 47.34 -65 46.68 -65 46 C-64.34 46 -63.68 46 -63 46 C-62.67 44.68 -62.34 43.36 -62 42 C-61.01 41.01 -60.02 40.02 -59 39 C-58.01 39 -57.02 39 -56 39 C-55.67 38.01 -55.34 37.02 -55 36 C-52.78 34.96 -50.56 33.92 -48.29 32.98 C-45.71 31.88 -43.4 30.45 -41 29 C-40.34 29 -39.68 29 -39 29 C-39.5 27.51 -39.5 27.51 -40 26 C-39.34 26 -38.68 26 -38 26 C-37.5 24.51 -37.5 24.51 -37 23 C-34.04 20.04 -31.69 18.84 -28 17 C-27.01 16.01 -26.02 15.02 -25 14 C-23.55 13.32 -23.55 13.32 -22.06 12.62 C-18.71 10.85 -17.23 9.02 -15 6 C-12.29 4.65 -9.99 4.93 -7 5 C-7 4.34 -7 3.68 -7 3 C-5 2.66 -3 2.33 -1 2 C-0.67 1.34 -0.34 0.68 0 0 Z " fill="#A43EE7" transform="translate(909,180)"/><path d="M0 0 C2.88 3.84 3.01 5.71 2.88 10.56 C1.72 16.4 0.87 18.71 -4.05 22.1 C-10.88 25.41 -18.77 24.6 -26.19 24.62 C-29.24 24.65 -32.3 24.68 -35.36 24.73 C-37.38 24.74 -37.38 24.74 -39.44 24.74 C-42.98 25 -46.38 25.38 -49 28 C-49.26 30.49 -49.41 33 -49.5 35.5 C-49.57 36.87 -49.64 38.24 -49.72 39.66 C-49.48 40.76 -49.24 41.86 -49 43 C-45.52 44.12 -45.52 44.12 -42 44 C-46.15 46.08 -50.22 47.74 -54.62 49.19 C-58.91 51.49 -59.15 53.65 -61 58 C-64 58.81 -64 58.81 -67 59 C-68.49 59.99 -68.49 59.99 -70 61 C-70.99 60.67 -71.98 60.34 -73 60 C-73.5 60.99 -73.5 60.99 -74 62 C-75.32 61.67 -76.64 61.34 -78 61 C-78 61.66 -78 62.32 -78 63 C-78.66 63 -79.32 63 -80 63 C-80.37 64.99 -80.71 66.99 -81 69 C-81.33 69 -81.66 69 -82 69 C-82.57 60.34 -82.77 51.67 -83 43 C-83.04 41.84 -83.07 40.68 -83.11 39.49 C-83.2 36.18 -83.26 32.87 -83.31 29.56 C-83.34 28.56 -83.37 27.57 -83.4 26.54 C-83.47 17.92 -81.79 9.54 -75.75 3.06 C-60.22 -9.62 -16.04 -12.89 0 0 Z " fill="#A23EEA" transform="translate(1021,139)"/><path d="M0 0 C1.61 3.02 2.86 5.82 4.06 9 C4.41 9.91 4.76 10.82 5.12 11.75 C9.68 24 11.6 35.94 11 49 C10.34 49 9.68 49 9 49 C8.34 51.48 8.34 51.48 8 54 C4.65 53.05 1.31 52.1 -2 51 C-2 51.66 -2 52.32 -2 53 C-2.66 53 -3.32 53 -4 53 C-4.66 54.32 -5.32 55.64 -6 57 C-8.75 57.98 -8.75 57.98 -12 58.62 C-16.48 59.39 -16.48 59.39 -20 62 C-21.05 62.29 -22.1 62.58 -23.19 62.88 C-28.91 64.56 -33.25 67.44 -38 71 C-38.66 71 -39.32 71 -40 71 C-40.5 72.49 -40.5 72.49 -41 74 C-43.94 75.25 -43.94 75.25 -47 75 C-47.98 71.87 -48.55 69.2 -49 66 C-49.82 62.08 -49.82 62.08 -51 59 C-51.99 59 -52.98 59 -54 59 C-53.94 58.01 -53.88 57.02 -53.81 56 C-54.08 50.33 -55.4 45.88 -59.12 41.51 C-62.5 38.56 -65.88 36.85 -69.94 34.94 C-79.77 30.27 -79.77 30.27 -84 27 C-83.67 26.34 -83.34 25.68 -83 25 C-74.91 22.77 -74.91 22.77 -70 24 C-70 24.66 -70 25.32 -70 26 C-67.46 26.26 -64.93 26.51 -62.38 26.66 C-60 27 -60 27 -58 29 C-54.36 29 -51.19 26.62 -48 25 C-45.67 24 -43.34 22.99 -41 22 C-40.07 21.48 -39.14 20.97 -38.19 20.44 C-32.91 18.06 -27.41 16.96 -21.62 17.06 C-18.52 17.24 -18.52 17.24 -15 14 C-12.25 13.31 -12.25 13.31 -10 13 C-10.43 11.76 -10.87 10.53 -11.31 9.25 C-11.54 7.85 -11.77 6.44 -12 5 C-8.43 1.02 -5.3 0 0 0 Z " fill="#9C3EF1" transform="translate(316,197)"/><path d="M0 0 C0.66 0 1.32 0 2 0 C2.66 2.82 3.23 5.65 3.75 8.5 C5.13 15.93 5.13 15.93 9.06 22.25 C14.51 29.2 15.33 38.33 15 47 C13.36 54.64 13.36 54.64 12 56 C12.33 56.66 12.66 57.32 13 58 C12.15 57.96 11.31 57.92 10.44 57.88 C9.63 58.25 8.83 58.62 8 59 C8 62.72 8.01 65.49 9 69 C11.84 72.03 11.84 72.03 15 74 C-3.91 78.73 -23.45 73.18 -40 64 C-43.59 61.57 -46.83 58.96 -50 56 C-51.2 54.89 -52.39 53.77 -53.62 52.62 C-56 50 -56 50 -56 48 C-53.52 46.75 -53.52 46.75 -50.25 45.44 C-49.18 45 -48.12 44.57 -47.02 44.12 C-42.71 42.52 -40.54 41.87 -36 43 C-33.9 43.98 -31.82 45.01 -29.75 46.06 C-28.67 46.61 -27.59 47.16 -26.48 47.72 C-25.66 48.14 -24.84 48.57 -24 49 C-22 45.24 -22 45.24 -21 42 C-20.01 42 -19.02 42 -18 42 C-20.53 39.4 -22.89 37.07 -25.88 35 C-28 33 -28 33 -28.31 30.5 C-26.28 26.64 -22.86 25.81 -19 24 C-18.01 22.68 -17.02 21.36 -16 20 C-15.01 19.67 -14.02 19.34 -13 19 C-10.05 15.76 -7.97 12.94 -6 9 C-5.34 9 -4.68 9 -4 9 C-4 8.34 -4 7.68 -4 7 C-3.34 7 -2.68 7 -2 7 C-1.67 5.84 -1.34 4.69 -1 3.5 C-0.67 2.34 -0.34 1.19 0 0 Z " fill="#E441A0" transform="translate(132,240)"/><path d="M0 0 C7.37 1.52 13.5 7.91 17.68 13.85 C22.73 22.1 24.13 29.49 24 39 C23.17 38.94 22.34 38.88 21.48 38.82 C17.25 39.04 14.21 40.29 10.31 41.94 C9.01 42.48 7.71 43.03 6.36 43.59 C5.25 44.06 4.14 44.52 3 45 C0 46 0 46 -3.5 44.75 C-7.63 42.68 -9.56 41.18 -11.19 36.81 C-11.46 35.88 -11.72 34.96 -12 34 C-12.56 35.26 -13.11 36.52 -13.69 37.81 C-15.96 41.93 -16.89 43.1 -21 45 C-21.99 45.66 -22.98 46.32 -24 47 C-23.34 48.32 -22.68 49.64 -22 51 C-23.01 51.14 -24.02 51.29 -25.06 51.44 C-29.89 53.35 -31.47 55.7 -34.32 59.91 C-36 62 -36 62 -40 64 C-41.11 66.39 -41.11 66.39 -42 69 C-42.99 70.32 -43.98 71.64 -45 73 C-46.32 72.67 -47.64 72.34 -49 72 C-50.45 69.11 -50.46 66.27 -50.81 63.06 C-51.8 55.28 -53.81 48.48 -57.25 41.45 C-58 39 -58 39 -56 35 C-48.91 30.77 -48.91 30.77 -44 32 C-42.97 33.65 -41.97 35.32 -41 37 C-39.51 37.5 -39.51 37.5 -38 38 C-37.75 36.68 -37.5 35.36 -37.25 34 C-35.94 28.21 -34.36 22.64 -29.31 19.12 C-28.55 18.75 -27.79 18.38 -27 18 C-26.67 17.34 -26.34 16.68 -26 16 C-22.54 14.71 -19.04 13.62 -15.52 12.51 C-11.71 10.88 -9.76 9.04 -7 6 C-5.34 4.99 -3.67 3.99 -2 3 C-1.34 2.01 -0.68 1.02 0 0 Z " fill="#FC7678" transform="translate(296,101)"/><path d="M0 0 C0.99 0.33 1.98 0.66 3 1 C-2.14 15.88 -9.05 27.69 -20 39 C-21.28 40.45 -22.55 41.91 -23.81 43.38 C-26.45 46.37 -29.14 49.22 -32 52 C-35.22 55.22 -34.14 63.43 -34.18 67.69 C-34.2 69.13 -34.22 70.57 -34.25 72.05 C-34.29 75.06 -34.32 78.07 -34.34 81.08 C-34.37 82.52 -34.4 83.96 -34.43 85.44 C-34.44 86.75 -34.45 88.05 -34.47 89.4 C-35.34 95.29 -38.02 98.21 -42.56 101.88 C-47.99 104.47 -52.09 104.97 -58 104 C-62.85 101.67 -65.85 98.32 -69 94 C-70.06 89.78 -70.11 86.3 -70.1 81.95 C-70.09 80.39 -70.09 78.82 -70.09 77.21 C-70.08 75.57 -70.07 73.94 -70.06 72.25 C-70.06 70.58 -70.05 68.91 -70.05 67.25 C-70.04 63.16 -70.02 59.08 -70 55 C-69.67 55 -69.34 55 -69 55 C-68.86 56.32 -68.71 57.64 -68.56 59 C-68.38 60.32 -68.19 61.64 -68 63 C-67.34 63 -66.68 63 -66 63 C-65.67 62.34 -65.34 61.68 -65 61 C-62.69 60.44 -62.69 60.44 -60 60 C-58.02 59.5 -58.02 59.5 -56 59 C-55.67 58.01 -55.34 57.02 -55 56 C-54.01 56 -53.02 56 -52 56 C-51.67 54.68 -51.34 53.36 -51 52 C-50.67 50.68 -50.34 49.36 -50 48 C-47.68 46.98 -45.34 45.98 -43 45 C-43 44.01 -43 43.02 -43 42 C-42.01 42 -41.02 42 -40 42 C-40.33 41.01 -40.66 40.02 -41 39 C-40.24 38.71 -39.47 38.42 -38.69 38.12 C-35.8 37.26 -35.8 37.26 -34.75 34.56 C-34.5 33.72 -34.25 32.87 -34 32 C-33.5 30.51 -33.5 30.51 -33 29 C-31.68 28.34 -30.36 27.68 -29 27 C-27.66 25.34 -26.32 23.68 -25 22 C-24.34 22 -23.68 22 -23 22 C-22.5 20.51 -22.5 20.51 -22 19 C-16.63 15 -16.63 15 -14 15 C-14 14.01 -14 13.02 -14 12 C-12.68 11.67 -11.36 11.34 -10 11 C-9.34 9.68 -8.68 8.36 -8 7 C-7.01 6.67 -6.02 6.34 -5 6 C-3.76 4.45 -3.76 4.45 -2.5 2.88 C-1.26 1.45 -1.26 1.45 0 0 Z " fill="#FC7861" transform="translate(585,156)"/><path d="M0 0 C2 1 2 1 3.38 4.38 C4.81 8.36 4.81 8.36 9 11 C13.23 12.44 14.74 12.12 18.88 10.25 C20.24 9.51 21.6 8.76 23 8 C27.04 6.22 30.15 5.04 34.56 4.81 C35.37 5.2 36.17 5.6 37 6 C36.72 12.08 35.02 17.4 33.06 23.12 C30.69 30.26 29.12 37.1 28.32 44.61 C28.22 45.4 28.11 46.19 28 47 C27.67 47 27.34 47 27 47 C26.86 46.18 26.71 45.35 26.56 44.5 C26.28 43.26 26.28 43.26 26 42 C25.34 42 24.68 42 24 42 C23.34 43.32 22.68 44.64 22 46 C18.94 47.06 18.94 47.06 15 48 C8.1 49.65 8.1 49.65 3.44 54.69 C2.96 55.78 2.49 56.87 2 58 C1.01 57.34 0.02 56.68 -1 56 C-1.5 56.99 -1.5 56.99 -2 58 C-2.66 58 -3.32 58 -4 58 C-4 58.66 -4 59.32 -4 60 C-6.46 61.07 -8.97 62.03 -11.5 62.94 C-12.89 63.44 -14.28 63.95 -15.72 64.46 C-17.13 64.97 -18.54 65.48 -20 66 C-21.41 66.54 -22.83 67.08 -24.29 67.64 C-27.93 68.97 -31.13 69.76 -35 70 C-35.33 69.34 -35.66 68.68 -36 68 C-34.41 65.25 -32.76 62.64 -31 60 C-30.48 59.17 -29.97 58.33 -29.43 57.47 C-28.04 55.26 -26.53 53.12 -25 51 C-24.01 51 -23.02 51 -22 51 C-20.94 48.92 -20.94 48.92 -20 46 C-18.08 41.62 -16.14 37.28 -14 33 C-9.36 31.43 -6.8 30.8 -2 32 C-0.68 31.67 0.64 31.34 2 31 C3.31 26.99 3.31 26.99 4 23 C3.34 23 2.68 23 2 23 C2 24.32 2 25.64 2 27 C1.34 27 0.68 27 0 27 C-0.52 25.6 -1.03 24.19 -1.56 22.75 C-3.24 18.68 -4.7 17.18 -8.75 15.44 C-10.15 14.96 -11.56 14.49 -13 14 C-11 12 -11 12 -7.62 10.94 C-2.51 8.2 -1.94 5.37 0 0 Z " fill="#F64CBD" transform="translate(283,134)"/><path d="M0 0 C0.99 1.98 0.99 1.98 2 4 C-5.64 19.29 -22.29 31.15 -38.02 36.57 C-61.98 44.51 -82.73 41.17 -105.73 31.26 C-108.71 30.11 -111.23 29.57 -114.38 29.19 C-115.57 28.8 -116.77 28.4 -118 28 C-119.33 23.41 -119.49 20.49 -118 15.94 C-116 14 -116 14 -113.16 13.63 C-107.27 14.15 -102.02 16.04 -96.44 17.94 C-94.23 18.68 -92.02 19.42 -89.81 20.15 C-88.84 20.48 -87.87 20.81 -86.86 21.15 C-70.51 25.99 -50.95 23.76 -35.62 16.75 C-29.01 13.14 -23.38 8.15 -17.81 3.12 C-12.15 -1.16 -6.84 -1.62 0 0 Z " fill="#6327C6" transform="translate(313,280)"/><path d="M0 0 C1.29 0.03 1.29 0.03 2.61 0.06 C4.43 0.1 6.25 0.17 8.07 0.24 C10.84 0.35 13.6 0.41 16.37 0.46 C18.14 0.51 19.91 0.56 21.69 0.62 C23.29 0.68 24.89 0.73 26.54 0.79 C32.01 1.71 34.62 3.27 39.04 6.54 C42.05 10.87 42.68 14.33 42.04 19.54 C40.21 24.06 38.75 26.1 34.61 28.72 C28.98 30.97 24.42 31.1 18.42 31.04 C17.32 31.04 16.22 31.04 15.09 31.04 C12.78 31.04 10.46 31.03 8.14 31.01 C4.62 30.98 1.1 30.99 -2.43 31 C-4.69 31 -6.94 30.99 -9.2 30.98 C-10.77 30.98 -10.77 30.98 -12.37 30.99 C-18.82 30.9 -24.01 30.12 -29.96 27.54 C-30.29 26.55 -30.62 25.56 -30.96 24.54 C-29.97 24.21 -28.98 23.88 -27.96 23.54 C-27.96 22.88 -27.96 22.22 -27.96 21.54 C-27.3 21.54 -26.64 21.54 -25.96 21.54 C-25.96 20.55 -25.96 19.56 -25.96 18.54 C-23.14 16.98 -23.14 16.98 -19.96 15.54 C-18.97 14.88 -17.98 14.22 -16.96 13.54 C-16.96 12.55 -16.96 11.56 -16.96 10.54 C-15.97 10.21 -14.98 9.88 -13.96 9.54 C-13.96 8.55 -13.96 7.56 -13.96 6.54 C-10.09 0.26 -7.17 -0.19 0 0 Z " fill="#6933F8" transform="translate(981.95703125,228.45703125)"/><path d="M0 0 C6.15 0.46 6.15 0.46 9.31 3.25 C9.84 7.62 9.65 11.87 9.31 16.25 C8.98 16.25 8.65 16.25 8.31 16.25 C8.31 14.27 8.31 12.29 8.31 10.25 C7.65 10.25 6.99 10.25 6.31 10.25 C5.82 11.98 5.82 11.98 5.31 13.75 C4.82 15.48 4.82 15.48 4.31 17.25 C3.65 17.25 2.99 17.25 2.31 17.25 C2.31 17.91 2.31 18.57 2.31 19.25 C1.65 19.25 0.99 19.25 0.31 19.25 C0.02 20.16 -0.27 21.06 -0.56 22 C-1.76 25.47 -2.97 26.87 -5.69 29.25 C-6.35 29.91 -7.01 30.57 -7.69 31.25 C-8.35 30.92 -9.01 30.59 -9.69 30.25 C-10.35 31.57 -11.01 32.89 -11.69 34.25 C-14.63 36.09 -17.59 37.7 -20.69 39.25 C-20.98 41.6 -20.98 41.6 -19.69 44.25 C-17.14 46.44 -14.42 48.3 -11.69 50.25 C-11.69 50.91 -11.69 51.57 -11.69 52.25 C-12.68 52.25 -13.67 52.25 -14.69 52.25 C-15.02 53.57 -15.35 54.89 -15.69 56.25 C-16.35 57.24 -17.01 58.23 -17.69 59.25 C-21.51 59.25 -23.39 57.79 -26.62 55.69 C-31.41 52.8 -31.41 52.8 -36.69 53.25 C-39.39 54.52 -42.06 55.85 -44.69 57.25 C-46.67 57.75 -46.67 57.75 -48.69 58.25 C-48.56 55.94 -48.56 55.94 -47.69 53.25 C-44.48 51.23 -42.5 50.25 -38.69 50.25 C-40.34 49.92 -41.99 49.59 -43.69 49.25 C-42.7 48.75 -42.7 48.75 -41.69 48.25 C-42.56 45.89 -42.56 45.89 -44 43.19 C-46.27 38.44 -47.25 34.53 -47.69 29.25 C-48.04 28.07 -48.39 26.9 -48.75 25.69 C-49.77 21.94 -50.21 19.11 -49.69 15.25 C-46.84 12.87 -45.4 12.25 -41.69 12.25 C-40 15.03 -38.68 17.91 -37.29 20.84 C-36.76 21.64 -36.23 22.43 -35.69 23.25 C-34.37 23.25 -33.05 23.25 -31.69 23.25 C-31.69 22.59 -31.69 21.93 -31.69 21.25 C-30.64 20.51 -29.58 19.76 -28.5 19 C-24.63 16.46 -24.63 16.46 -22.12 13.06 C-19.39 9.91 -17.6 9.4 -13.69 8.25 C-13.36 7.26 -13.03 6.27 -12.69 5.25 C-9.72 3.85 -6.72 2.51 -3.69 1.25 C-2.69 0.25 -2.69 0.25 0 0 Z " fill="#FA5F80" transform="translate(125.6875,229.75)"/><path d="M0 0 C3.76 3.9 5.19 7.73 6.97 12.77 C10.96 24.25 10.96 24.25 17.91 34.02 C17.91 35.01 17.91 36 17.91 37.02 C14.29 39.36 10.58 41.17 6.66 42.96 C2.83 45.07 1.7 46.15 -0.09 50.02 C-2.09 53.02 -2.09 53.02 -4.93 54.04 C-8.09 54.02 -8.09 54.02 -10.43 51.84 C-11.15 50.81 -11.86 49.77 -12.59 48.71 C-13.36 47.6 -14.13 46.48 -14.92 45.34 C-15.99 43.7 -15.99 43.7 -17.09 42.02 C-17.66 41.17 -18.23 40.32 -18.82 39.45 C-24.13 31.16 -29.09 21 -29.09 11.02 C-27.51 4.8 -25.43 1.58 -20.09 -1.98 C-13.57 -5.47 -6 -3.85 0 0 Z " fill="#FC8722" transform="translate(505.08984375,136.98046875)"/><path d="M0 0 C1.09 0.7 1.09 0.7 2.2 1.41 C5.8 4.08 5.8 4.08 8.32 3.91 C8.32 5.56 8.32 7.21 8.32 8.91 C7 9.24 5.68 9.57 4.32 9.91 C3.66 11.23 3 12.55 2.32 13.91 C0.11 14.92 -2.11 15.93 -4.39 16.78 C-7.07 18.1 -8.6 19.78 -10.68 21.91 C-12.25 22.96 -13.86 23.96 -15.49 24.91 C-16.37 25.42 -17.25 25.93 -18.16 26.46 C-18.99 26.94 -19.82 27.41 -20.68 27.91 C-21.9 28.61 -23.11 29.31 -24.37 30.03 C-26.01 30.96 -26.01 30.96 -27.68 31.91 C-28.94 32.65 -30.2 33.39 -31.49 34.16 C-34.68 35.91 -34.68 35.91 -36.68 35.91 C-36.68 36.57 -36.68 37.23 -36.68 37.91 C-37.67 37.91 -38.66 37.91 -39.68 37.91 C-40.01 38.9 -40.34 39.89 -40.68 40.91 C-43.3 42.32 -45.97 43.66 -48.68 44.91 C-49.01 44.25 -49.34 43.59 -49.68 42.91 C-50.34 42.91 -51 42.91 -51.68 42.91 C-52.01 44.1 -52.34 45.3 -52.68 46.53 C-55.31 52.3 -58.96 54.42 -64.68 56.91 C-65.67 56.91 -66.66 56.91 -67.68 56.91 C-68.34 57.57 -69 58.23 -69.68 58.91 C-69.39 48.62 -68.4 38.59 -64.68 28.91 C-61.68 26.91 -61.68 26.91 -57.68 26.91 C-52.78 26.53 -51.02 24.33 -47.68 20.91 C-46.69 20.91 -45.7 20.91 -44.68 20.91 C-44.02 19.59 -43.36 18.27 -42.68 16.91 C-39.1 14.22 -35.57 12.09 -31.68 9.91 C-30.57 9.23 -30.57 9.23 -29.45 8.54 C-25.97 6.49 -22.44 4.59 -18.87 2.72 C-17.52 2 -16.17 1.29 -14.79 0.55 C-9.54 -1.55 -5.31 -2.17 0 0 Z " fill="#FC7D42" transform="translate(129.6796875,186.09375)"/><path d="M0 0 C4.38 2.06 8.16 1.6 12.94 1.47 C17.2 1.51 21.06 2.53 25.19 3.5 C26.53 3.44 27.87 3.38 29.25 3.31 C37.47 3.62 47 5.34 53 11.28 C55.14 14.43 56.62 17.34 58 20.88 C58.42 21.93 58.84 22.99 59.27 24.09 C59.57 24.88 59.88 25.68 60.19 26.5 C60.81 24.24 60.81 24.24 61.44 21.94 C62.83 17.37 64.4 13.43 67.19 9.5 C69.94 8.06 69.94 8.06 72.19 7.5 C72.52 8.49 72.85 9.48 73.19 10.5 C69.19 13.5 69.19 13.5 67.19 13.5 C66.46 15.82 65.81 18.15 65.19 20.5 C62.56 27.76 62.56 27.76 61.19 30.5 C59.87 30.17 58.55 29.84 57.19 29.5 C56.73 28.63 56.28 27.77 55.81 26.88 C55.28 26.09 54.74 25.31 54.19 24.5 C49.83 24.5 46.66 25.92 43.19 28.5 C42.69 29.99 42.69 29.99 42.19 31.5 C41.53 31.5 40.87 31.5 40.19 31.5 C38.51 29.56 36.84 27.61 35.16 25.66 C24 13.46 6.93 9.06 -9.05 8.3 C-27.9 8.1 -46.89 9.5 -62.81 20.5 C-63.47 21.16 -64.13 21.82 -64.81 22.5 C-66.13 22.17 -67.45 21.84 -68.81 21.5 C-68.81 20.51 -68.81 19.52 -68.81 18.5 C-67.49 17.84 -66.17 17.18 -64.81 16.5 C-64.81 15.51 -64.81 14.52 -64.81 13.5 C-64.15 13.5 -63.49 13.5 -62.81 13.5 C-62.48 12.51 -62.15 11.52 -61.81 10.5 C-60.82 10.17 -59.83 9.84 -58.81 9.5 C-55.78 6.66 -55.78 6.66 -53.81 3.5 C-46.97 -2.24 -35.65 -0.54 -27.23 -0.47 C-24.14 -0.5 -21.14 -0.69 -18.06 -1 C-4.43 -2.36 -4.43 -2.36 0 0 Z " fill="#FD8A07" transform="translate(196.8125,108.5)"/><path d="M0 0 C1.49 2.79 2.64 5.37 3.75 8.31 C4.07 9.1 4.38 9.88 4.71 10.69 C5.97 13.9 7 16.53 7 20 C3.04 20 -0.92 20 -5 20 C-4.94 21.79 -4.88 23.59 -4.81 25.44 C-4.71 28.5 -4.71 28.5 -5 31 C-6.49 31.5 -6.49 31.5 -8 32 C-8.33 33.32 -8.66 34.64 -9 36 C-12.46 36.3 -15.61 36.37 -19.06 36.25 C-20.49 36.22 -20.49 36.22 -21.94 36.2 C-24.29 36.15 -26.65 36.08 -29 36 C-29 36.66 -29 37.32 -29 38 C-31.98 39.44 -34.94 40.74 -38 42 C-39.26 42.59 -39.26 42.59 -40.54 43.18 C-46.05 45.65 -49.97 46.77 -56 45 C-56.59 44.24 -57.17 43.47 -57.77 42.69 C-60.56 39.33 -63.37 37.91 -67.25 35.94 C-68.58 35.25 -69.9 34.57 -71.27 33.86 C-74.14 32.43 -77.03 31.05 -79.94 29.69 C-80.95 29.13 -81.96 28.57 -83 28 C-83 27.01 -83 26.02 -83 25 C-78.13 23.57 -74.97 22.76 -70 24 C-70 24.66 -70 25.32 -70 26 C-67.46 26.26 -64.93 26.51 -62.38 26.66 C-60 27 -60 27 -58 29 C-54.36 29 -51.19 26.62 -48 25 C-45.67 24 -43.34 22.99 -41 22 C-40.07 21.48 -39.14 20.97 -38.19 20.44 C-32.91 18.06 -27.41 16.96 -21.62 17.06 C-18.52 17.24 -18.52 17.24 -15 14 C-12.25 13.31 -12.25 13.31 -10 13 C-10.43 11.76 -10.87 10.53 -11.31 9.25 C-11.54 7.85 -11.77 6.44 -12 5 C-8.43 1.02 -5.3 0 0 0 Z " fill="#BE42E0" transform="translate(316,197)"/><path d="M0 0 C1 -0.01 2.01 -0.01 3.04 -0.02 C5.14 -0.03 7.25 -0.03 9.35 -0.04 C12.58 -0.05 15.81 -0.08 19.04 -0.11 C21.09 -0.12 23.14 -0.12 25.19 -0.12 C26.16 -0.14 27.12 -0.15 28.12 -0.16 C30.46 -0.15 32.8 0.01 35.13 0.2 C36.12 1.69 36.12 1.69 37.13 3.2 C36.3 3.35 35.48 3.49 34.63 3.64 C33.8 3.83 32.98 4.01 32.13 4.2 C32.13 4.53 32.13 4.86 32.13 5.2 C30.48 5.2 28.83 5.2 27.13 5.2 C27.13 6.85 27.13 8.5 27.13 10.2 C26.47 10.2 25.81 10.2 25.13 10.2 C25.13 10.86 25.13 11.52 25.13 12.2 C24.14 13.19 23.15 14.18 22.13 15.2 C21.8 16.19 21.47 17.18 21.13 18.2 C19.81 17.87 18.49 17.54 17.13 17.2 C15.96 19.63 15.96 19.63 15.13 22.2 C14.47 22.2 13.81 22.2 13.13 22.2 C11.97 24.67 11.97 24.67 11.13 27.2 C12.12 27.51 13.11 27.82 14.13 28.14 C15.12 28.49 16.11 28.84 17.13 29.2 C17.13 29.53 17.13 29.86 17.13 30.2 C12.01 30.33 6.88 30.42 1.76 30.48 C0.02 30.5 -1.72 30.54 -3.46 30.58 C-5.97 30.64 -8.48 30.67 -11 30.69 C-13.26 30.73 -13.26 30.73 -15.57 30.77 C-20.77 30.08 -23.69 28.33 -27.87 25.2 C-31.14 19.95 -31.22 16.18 -29.87 10.2 C-27.83 5.21 -24.72 3.39 -19.87 1.2 C-13.24 0.23 -6.69 0.03 0 0 Z " fill="#DA47D7" transform="translate(865.87109375,132.796875)"/><path d="M0 0 C6.45 2.44 9.87 5.55 14 11 C14.61 11.79 15.22 12.58 15.86 13.39 C20.2 19.23 23.38 24.44 22.75 32 C22.5 32.66 22.25 33.32 22 34 C21.34 34 20.68 34 20 34 C20.5 35.98 20.5 35.98 21 38 C19.02 38.72 17.01 39.38 15 40 C14.01 41.32 13.02 42.64 12 44 C11.34 44 10.68 44 10 44 C10 45.65 10 47.3 10 49 C8.51 49.5 8.51 49.5 7 50 C6.67 50.66 6.34 51.32 6 52 C1.32 50.83 0.98 50.09 -1.62 46.25 C-5.47 40.72 -9.53 35.42 -13.7 30.14 C-18.19 24 -20.86 19.75 -20 12 C-16.68 2.92 -9.42 -0.83 0 0 Z " fill="#FA579C" transform="translate(738,133)"/><path d="M0 0 C0 0.33 0 0.66 0 1 C-6.39 2.2 -6.39 2.2 -10 1 C-10 1.66 -10 2.32 -10 3 C-7.52 3.66 -7.52 3.66 -5 4 C-5.33 4.99 -5.66 5.98 -6 7 C-6.78 7.31 -7.57 7.62 -8.38 7.94 C-11.49 8.94 -11.49 8.94 -14 13 C-16.97 15.08 -18.34 16 -22 16 C-22.43 17.42 -22.43 17.42 -22.88 18.88 C-23.25 19.91 -23.62 20.94 -24 22 C-26.5 23.12 -26.5 23.12 -29 24 C-29.66 25.32 -30.32 26.64 -31 28 C-30.5 28.99 -30.5 28.99 -30 30 C-30.5 31.49 -30.5 31.49 -31 33 C-32.98 33.5 -32.98 33.5 -35 34 C-35 34.66 -35 35.32 -35 36 C-37.49 38.13 -40.1 40.06 -42.71 42.03 C-45.24 43.87 -45.24 43.87 -46 47 C-46.66 47.66 -47.32 48.32 -48 49 C-48.33 50.32 -48.66 51.64 -49 53 C-51.87 55.02 -54.86 56.43 -58 58 C-58.12 58.89 -58.25 59.77 -58.38 60.69 C-58.58 61.45 -58.79 62.21 -59 63 C-62 62.69 -62 62.69 -65 62 C-65.33 62.66 -65.66 63.32 -66 64 C-68.99 52.04 -64.13 39.49 -58.4 29.1 C-49.85 14.87 -37.87 6.7 -22.37 1.09 C-14.92 -0.77 -7.65 -0.48 0 0 Z " fill="#FC7860" transform="translate(658,133)"/><path d="M0 0 C4.16 2.8 7.62 6.42 9.88 10.94 C9.97 13.34 9.99 15.74 9.99 18.14 C9.99 19.66 9.99 21.18 9.99 22.75 C9.98 24.42 9.98 26.09 9.97 27.76 C9.97 29.46 9.97 31.16 9.97 32.86 C9.96 37.34 9.95 41.82 9.94 46.31 C9.93 50.88 9.93 55.45 9.92 60.02 C9.91 68.99 9.9 77.96 9.88 86.94 C9.55 86.94 9.21 86.94 8.88 86.94 C8.76 85.23 8.73 83.51 8.72 81.8 C8.71 80.68 8.7 79.55 8.69 78.4 C8.68 77.17 8.67 75.95 8.66 74.69 C8.64 72.14 8.61 69.58 8.58 67.03 C8.54 62.98 8.5 58.92 8.47 54.86 C8.45 50.97 8.4 47.08 8.35 43.19 C8.35 41.96 8.35 40.74 8.34 39.48 C8.33 38.35 8.31 37.23 8.29 36.08 C8.28 35.08 8.28 34.09 8.27 33.06 C8.14 32.36 8.01 31.66 7.88 30.94 C6.88 30.94 5.89 30.94 4.88 30.94 C5.2 31.93 5.54 32.92 5.88 33.94 C6.54 33.94 7.19 33.94 7.88 33.94 C7.88 35.92 7.88 37.9 7.88 39.94 C4.41 39.44 4.41 39.44 0.88 38.94 C0.88 39.6 0.88 40.26 0.88 40.94 C-5.12 42.94 -5.12 42.94 -8.12 42.94 C-8.79 42.28 -9.44 41.62 -10.12 40.94 C-11.22 40.94 -12.31 40.94 -13.44 40.94 C-17.05 40.94 -18.9 40.36 -22.12 38.94 C-22.14 39.69 -22.15 40.44 -22.16 41.22 C-22.26 49 -22.38 56.79 -22.5 64.57 C-22.54 67.48 -22.58 70.39 -22.62 73.3 C-22.68 77.47 -22.74 81.64 -22.81 85.81 C-22.83 87.12 -22.84 88.44 -22.86 89.79 C-22.88 90.99 -22.9 92.19 -22.92 93.43 C-22.94 94.5 -22.95 95.56 -22.97 96.66 C-23.02 97.41 -23.07 98.16 -23.12 98.94 C-23.45 98.94 -23.79 98.94 -24.12 98.94 C-24.17 88.12 -24.21 77.31 -24.23 66.5 C-24.24 61.47 -24.25 56.45 -24.28 51.43 C-24.3 46.58 -24.31 41.73 -24.31 36.88 C-24.32 35.03 -24.33 33.19 -24.34 31.34 C-24.35 28.75 -24.35 26.15 -24.35 23.56 C-24.36 22.08 -24.36 20.61 -24.37 19.09 C-24.04 13.43 -23.47 8.62 -19.88 4.12 C-13.54 -0.92 -7.94 -2.7 0 0 Z " fill="#8339F3" transform="translate(1057.125,134.0625)"/><path d="M0 0 C2.06 -0.04 2.06 -0.04 4.15 -0.08 C10.28 0.44 13.18 2.32 17.38 6.75 C21.41 12 21.57 15.68 21.06 22.25 C17.71 29.16 13.69 33.59 6.37 36.22 C-0.6 38.18 -7.73 39.37 -14.94 38.25 C-19.3 35.63 -19.82 33.64 -21.25 28.75 C-22.39 21.36 -23.47 13.53 -20.25 6.62 C-14.23 0.44 -8.34 0.09 0 0 Z " fill="#FC8624" transform="translate(186.9375,154.75)"/><path d="M0 0 C5.16 -0.1 10.32 -0.17 15.48 -0.22 C17.23 -0.24 18.99 -0.27 20.74 -0.3 C23.27 -0.35 25.79 -0.37 28.32 -0.39 C29.84 -0.41 31.36 -0.43 32.92 -0.45 C37.48 0.05 39.52 1.07 43 4 C46.35 8.47 46.75 10.52 47 16 C46.01 21.07 43.89 23.66 40 27 C35.02 29.49 30.76 29.25 25.33 29.2 C24.29 29.19 23.25 29.19 22.18 29.19 C18.87 29.18 15.56 29.15 12.25 29.12 C10 29.11 7.76 29.11 5.51 29.1 C0.01 29.08 -5.5 29.04 -11 29 C-11 28.34 -11 27.68 -11 27 C-15.62 27.33 -20.24 27.66 -25 28 C-25 27.34 -25 26.68 -25 26 C-22.03 26 -19.06 26 -16 26 C-16 25.34 -16 24.68 -16 24 C-10.52 19 -10.52 19 -8 19 C-7.67 18.01 -7.34 17.02 -7 16 C-5 14 -5 14 -2.12 13.94 C-0.58 13.97 -0.58 13.97 1 14 C2.32 13.67 3.64 13.34 5 13 C5.17 10.08 5.17 10.08 5 7 C5.66 6.01 6.32 5.02 7 4 C7.66 4 8.32 4 9 4 C9 3.34 9 2.68 9 2 C6 1.63 3 1.29 0 1 C0 0.67 0 0.34 0 0 Z " fill="#8539EE" transform="translate(882,230)"/><path d="M0 0 C2.49 2.44 4.48 4.69 6.56 7.44 C7.11 8.13 7.66 8.81 8.23 9.52 C12.69 15.2 17.51 21.42 18.5 28.69 C17.68 34.13 16.02 37.05 12 40.81 C6.93 44.51 2.09 44.5 -4 44 C-12.78 41.25 -17.93 31.93 -23.06 24.81 C-23.58 24.12 -24.09 23.43 -24.62 22.72 C-26.04 20.71 -26.04 20.71 -28 17 C-27.49 14.12 -27.49 14.12 -26 12 C-23.06 10.31 -23.06 10.31 -20 9 C-19.01 8.34 -18.02 7.68 -17 7 C-16.17 6.53 -15.35 6.05 -14.5 5.56 C-11.75 3.97 -11.75 3.97 -9 1 C-5.51 -0.16 -3.65 -0.6 0 0 Z " fill="#BF43DF" transform="translate(808,216)"/><path d="M0 0 C4.83 1.29 5.84 1.79 9 6 C9.35 8 9.68 10 10 12 C10.66 12 11.32 12 12 12 C12 10.68 12 9.36 12 8 C12.66 8 13.32 8 14 8 C13.88 11.87 13.88 11.87 13 16 C9.03 18.21 7.44 18.11 3 17 C-0.63 16.91 -0.63 16.91 -4 18 C-5.1 20.75 -5.1 20.75 -6 24 C-6.94 26.12 -7.92 28.23 -8.94 30.31 C-9.44 31.36 -9.95 32.41 -10.46 33.49 C-12 36 -12 36 -15 37 C-16.76 39.64 -18.39 42.27 -20 45 C-20.89 46.42 -21.79 47.84 -22.69 49.25 C-25.06 52.98 -25.06 52.98 -27 57 C-28.53 59.5 -30.09 61.98 -31.66 64.46 C-33.14 66.93 -33.14 66.93 -33.43 69.7 C-33.62 70.46 -33.81 71.22 -34 72 C-39.19 74.35 -39.19 74.35 -43 74 C-46.69 71.93 -49.6 69.5 -52 66 C-52.66 63.11 -52.66 63.11 -52 60 C-49.15 56.92 -49.15 56.92 -45.38 53.75 C-36.69 46.14 -32.23 38.98 -29 28 C-28 25 -28 25 -27 22 C-25.35 22.99 -23.7 23.98 -22 25 C-21.34 23.68 -20.68 22.36 -20 21 C-18.32 17.73 -16.92 15.94 -14.06 13.56 C-10.94 10.95 -9.14 8.44 -7 5 C-5 3 -5 3 -2.38 2.5 C-1.59 2.34 -0.81 2.17 0 2 C0 1.34 0 0.68 0 0 Z " fill="#E441A0" transform="translate(273,149)"/><path d="M0 0 C0.33 0 0.66 0 1 0 C1.1 1.57 1.21 3.13 1.31 4.75 C2 12.93 4.02 20.22 8.81 26.94 C11 30 11 30 10.81 32.94 C10.54 33.62 10.28 34.3 10 35 C10.66 35 11.32 35 12 35 C12.33 35.99 12.66 36.98 13 38 C11.82 38.25 10.65 38.5 9.44 38.75 C8.3 39.16 7.17 39.57 6 40 C6.5 41.98 6.5 41.98 7 44 C4.69 45.69 4.69 45.69 2 47 C1.01 47.5 1.01 47.5 0 48 C-0.66 47.67 -1.32 47.34 -2 47 C-2.66 48.32 -3.32 49.64 -4 51 C-4.33 51.66 -4.66 52.32 -5 53 C-5.66 53 -6.32 53 -7 53 C-7 53.66 -7 54.32 -7 55 C-12.47 54.34 -14.43 52.02 -17.87 47.93 C-23.69 39.92 -28.22 31.98 -29 22 C-28.01 22.33 -27.02 22.66 -26 23 C-26 23.66 -26 24.32 -26 25 C-25.01 25 -24.02 25 -23 25 C-22.67 24.01 -22.34 23.02 -22 22 C-16.78 19 -16.78 19 -14 19 C-13.67 18.01 -13.34 17.02 -13 16 C-11.35 15.3 -9.68 14.63 -8 14 C-7.67 13.34 -7.34 12.68 -7 12 C-7.66 11.67 -8.32 11.34 -9 11 C-8.03 10.57 -7.06 10.13 -6.06 9.69 C-2.72 8.3 -2.72 8.3 -2 5 C-1.34 5 -0.68 5 0 5 C0 3.35 0 1.7 0 0 Z " fill="#FA6181" transform="translate(623,192)"/><path d="M0 0 C0.33 0 0.66 0 1 0 C1.84 11.91 -1.73 27.38 -9 37 C-12.5 36.25 -12.5 36.25 -16 34 C-19.03 34.09 -19.03 34.09 -22 35 C-23.13 35.21 -24.27 35.41 -25.44 35.62 C-30.25 37.48 -32.46 40.26 -36 44 C-37.49 44.5 -37.49 44.5 -39 45 C-36.84 40.68 -34.16 37.63 -31 34 C-30.67 33.34 -30.34 32.68 -30 32 C-31.32 32.99 -32.64 33.98 -34 35 C-34.99 35 -35.98 35 -37 35 C-37.33 35.99 -37.66 36.98 -38 38 C-39.32 37.34 -40.64 36.68 -42 36 C-42 36.99 -42 37.98 -42 39 C-46.37 40.17 -48.94 40.03 -53 38 C-48.25 34 -48.25 34 -46 34 C-46.23 33.2 -46.45 32.39 -46.69 31.56 C-46.79 30.72 -46.89 29.87 -47 29 C-46.01 28.67 -45.02 28.34 -44 28 C-44 27.34 -44 26.68 -44 26 C-42.68 25.67 -41.36 25.34 -40 25 C-39.67 23.68 -39.34 22.36 -39 21 C-35.76 17.32 -32.39 15.2 -28 13 C-27.67 12.01 -27.34 11.02 -27 10 C-24.35 9.16 -24.35 9.16 -21.06 8.5 C-16.12 7.7 -16.12 7.7 -13 4 C-12.34 4 -11.68 4 -11 4 C-11 3.34 -11 2.68 -11 2 C-10.29 2.19 -9.58 2.38 -8.85 2.58 C-7.93 2.8 -7.01 3.02 -6.06 3.25 C-5.15 3.48 -4.23 3.71 -3.29 3.95 C-2.53 3.97 -1.78 3.98 -1 4 C-0.67 2.68 -0.34 1.36 0 0 Z " fill="#7F38F4" transform="translate(325,246)"/><path d="M0 0 C0.33 0 0.66 0 1 0 C1.24 3.67 1.42 7.33 1.56 11 C1.61 12.05 1.65 13.1 1.69 14.18 C1.8 16.79 1.9 19.39 2 22 C5.52 21.75 5.52 21.75 9 21 C9 20.01 9 19.02 9 18 C16.89 15.73 24.82 15.51 33 16 C35.34 18.34 34.62 23.91 34.81 27.19 C34.89 28.13 34.97 29.08 35.04 30.06 C35.31 34.64 35.34 37.32 33.23 41.5 C29.55 45.63 25.83 48.54 20.25 49.45 C14.34 49.68 10.52 49.09 6 45 C0.44 39.07 -0.13 34.93 -0.1 26.95 C-0.09 25.39 -0.09 23.82 -0.09 22.21 C-0.08 20.57 -0.07 18.94 -0.06 17.25 C-0.06 15.58 -0.05 13.91 -0.05 12.25 C-0.04 8.16 -0.02 4.08 0 0 Z " fill="#F96661" transform="translate(515,211)"/><path d="M0 0 C5.06 1.04 9.19 4.72 13 8 C12.67 9.32 12.34 10.64 12 12 C9.3 12.87 9.3 12.87 5.75 13.44 C-1.43 14.79 -8.53 16.5 -15 20 C-17.37 24 -17.37 24 -17 29 C-19.01 30.51 -19.01 30.51 -21.69 31.69 C-22.56 32.08 -23.43 32.48 -24.32 32.89 C-27 34 -27 34 -29.79 34.92 C-30.52 35.28 -31.25 35.63 -32 36 C-32.74 39.57 -32.74 39.57 -33 43 C-33.66 43 -34.32 43 -35 43 C-34.67 43.99 -34.34 44.98 -34 46 C-36.32 47.69 -38.65 49.35 -41 51 C-42.31 52.4 -43.58 53.84 -44.81 55.31 C-46.39 57.14 -46.39 57.14 -48 59 C-48.66 59 -49.32 59 -50 59 C-51.09 56.64 -52.07 54.24 -53 51.81 C-53.52 50.48 -54.03 49.14 -54.56 47.77 C-55.04 46.53 -55.51 45.28 -56 44 C-56.43 43.1 -56.87 42.19 -57.31 41.26 C-58 39 -58 39 -56 35 C-48.91 30.77 -48.91 30.77 -44 32 C-42.97 33.65 -41.97 35.32 -41 37 C-39.51 37.5 -39.51 37.5 -38 38 C-37.75 36.68 -37.5 35.36 -37.25 34 C-35.94 28.21 -34.36 22.64 -29.31 19.12 C-28.55 18.75 -27.79 18.38 -27 18 C-26.67 17.34 -26.34 16.68 -26 16 C-22.54 14.71 -19.04 13.62 -15.52 12.51 C-11.71 10.88 -9.76 9.04 -7 6 C-5.34 4.99 -3.67 3.99 -2 3 C-1.34 2.01 -0.68 1.02 0 0 Z " fill="#FC785F" transform="translate(296,101)"/><path d="M0 0 C8.78 6.63 14.22 15.75 18 26 C17 30 17 30 14 33 C13.01 33 12.02 33 11 33 C11 33.66 11 34.32 11 35 C6.5 36 6.5 36 2 37 C2 37.66 2 38.32 2 39 C1.34 39 0.68 39 0 39 C-0.66 40.32 -1.32 41.64 -2 43 C-4.99 43.71 -7.99 44.37 -11 45 C-11.66 45.99 -12.32 46.98 -13 48 C-13.17 47.08 -13.34 46.16 -13.52 45.22 C-14.91 38.17 -16.41 32.23 -20 26 C-20.33 25.34 -20.66 24.68 -21 24 C-17.27 21.97 -15.33 21 -11 21 C-10.67 20.01 -10.34 19.02 -10 18 C-9.01 17.67 -8.02 17.34 -7 17 C-6.67 16.01 -6.34 15.02 -6 14 C-5.01 13.67 -4.02 13.34 -3 13 C-2.31 11.34 -1.64 9.68 -1 8 C-0.34 8 0.32 8 1 8 C0.67 7.34 0.34 6.68 0 6 C-0.04 4 -0.04 2 0 0 Z " fill="#FB599D" transform="translate(697,148)"/><path d="M0 0 C3.92 4.35 7.1 9.45 9 15 C8.64 17.81 8.64 17.81 8 20 C7.5 19.01 7.5 19.01 7 18 C5.68 17.67 4.36 17.34 3 17 C1.68 16.34 0.36 15.68 -1 15 C-7.5 14.37 -11.47 15.77 -17.19 18.81 C-18.54 19.52 -19.9 20.23 -21.29 20.96 C-24.24 22.58 -27.13 24.25 -30 26 C-31.16 26.64 -32.31 27.28 -33.5 27.94 C-39.11 31.1 -39.11 31.1 -43 36 C-43.99 36 -44.98 36 -46 36 C-46.33 36.99 -46.66 37.98 -47 39 C-51.27 42.46 -54.58 43.48 -60 44 C-60.99 44.5 -60.99 44.5 -62 45 C-61.67 38.4 -61.34 31.8 -61 25 C-57 26 -57 26 -55 29 C-52.76 30.35 -52.76 30.35 -50 30 C-48.58 28.38 -47.17 26.74 -45.86 25.03 C-42.96 21.86 -39.39 19.96 -35.73 17.76 C-33.2 16.13 -31.13 14.43 -28.94 12.38 C-25.36 9.09 -21.6 7.07 -17.2 5.04 C-14.79 3.97 -14.79 3.97 -12 2 C-7.83 1.77 -4.06 2.02 0 3 C0 2.01 0 1.02 0 0 Z " fill="#FC8622" transform="translate(128,171)"/><path d="M0 0 C2.67 -0.05 5.33 -0.04 8 0 C9.13 0 10.27 0 11.44 0 C12.71 0.5 12.71 0.5 14 1 C15.12 5 15.12 5 15 9 C13.68 9.33 12.36 9.66 11 10 C11 10.66 11 11.32 11 12 C10.34 12 9.68 12 9 12 C9 11.34 9 10.68 9 10 C8.01 10.99 7.02 11.98 6 13 C4.68 13 3.36 13 2 13 C1.86 14.3 1.71 15.6 1.56 16.94 C1.28 18.95 1.28 18.95 1 21 C-1.5 21.81 -1.5 21.81 -4 22 C-4.5 23.49 -4.5 23.49 -5 25 C-7.55 25 -10.11 24.99 -12.65 24.81 C-13.43 24.87 -14.2 24.94 -15 25 C-15.66 25.99 -16.32 26.98 -17 28 C-17.99 28 -18.98 28 -20 28 C-20 28.66 -20 29.32 -20 30 C-21.52 31.31 -23.09 32.55 -24.69 33.75 C-27.89 36.22 -30.15 38.19 -32.62 41.44 C-35 44 -35 44 -39.19 45.19 C-41.07 45.09 -41.07 45.09 -43 45 C-44.31 42.56 -44.31 42.56 -45 40 C-45.99 40 -46.98 40 -48 40 C-47.98 38.99 -47.96 37.98 -47.94 36.94 C-47.91 32.99 -47.91 32.99 -48.62 29.12 C-48.75 28.09 -48.87 27.06 -49 26 C-47 25 -47 25 -44.68 25.55 C-41.48 26.09 -40.02 25.54 -37.06 24.25 C-36.2 23.88 -35.33 23.51 -34.44 23.12 C-32.46 22.21 -30.51 21.24 -28.56 20.25 C-26 19 -26 19 -23 19 C-23 18.34 -23 17.68 -23 17 C-19.31 15.92 -15.7 15.87 -11.88 15.88 C-10.32 15.87 -10.32 15.87 -8.74 15.87 C-6 16 -6 16 -3 17 C-2.67 15.68 -2.34 14.36 -2 13 C-1.34 12.67 -0.68 12.34 0 12 C0.24 9.18 0.24 9.18 0.12 5.94 C0.11 4.83 0.09 3.73 0.07 2.59 C0.05 1.74 0.02 0.88 0 0 Z " fill="#A33EE7" transform="translate(310,216)"/><path d="M0 0 C0.99 0.33 1.98 0.66 3 1 C3 2.32 3 3.64 3 5 C1.68 5.99 0.36 6.98 -1 8 C-1.75 11.61 -1.75 11.61 -1.69 15.62 C-1.73 16.98 -1.78 18.33 -1.82 19.73 C-1.55 20.81 -1.28 21.89 -1 23 C2.49 24.1 2.49 24.1 6 24 C1.85 26.08 -2.22 27.74 -6.62 29.19 C-10.91 31.49 -11.15 33.65 -13 38 C-16 38.81 -16 38.81 -19 39 C-19.99 39.66 -20.98 40.32 -22 41 C-22.99 40.67 -23.98 40.34 -25 40 C-25.33 40.66 -25.66 41.32 -26 42 C-27.32 41.67 -28.64 41.34 -30 41 C-30 41.66 -30 42.32 -30 43 C-30.66 43 -31.32 43 -32 43 C-32.37 44.99 -32.71 46.99 -33 49 C-33.33 49 -33.66 49 -34 49 C-34.12 44.92 -34.19 40.83 -34.25 36.75 C-34.28 35.59 -34.32 34.43 -34.35 33.24 C-34.36 32.12 -34.38 31.01 -34.39 29.86 C-34.41 28.83 -34.43 27.81 -34.45 26.75 C-33.88 23.25 -32.83 22.08 -30 20 C-28.68 20 -27.36 20 -26 20 C-25.67 19.34 -25.34 18.68 -25 18 C-22.67 17 -20.33 16 -18 15 C-17.67 14.34 -17.34 13.68 -17 13 C-16.34 13 -15.68 13 -15 13 C-14.67 12.01 -14.34 11.02 -14 10 C-13.03 9.69 -12.06 9.38 -11.06 9.06 C-7.54 8.24 -7.54 8.24 -6 4 C-4.34 3.64 -2.67 3.3 -1 3 C-0.67 2.01 -0.34 1.02 0 0 Z " fill="#9C3FF1" transform="translate(973,159)"/><path d="M0 0 C0.66 1.32 1.32 2.64 2 4 C2.66 4 3.32 4 4 4 C4.33 5.32 4.66 6.64 5 8 C6.32 8.66 7.64 9.32 9 10 C9 10.66 9 11.32 9 12 C11.61 12.44 14.24 12.75 16.88 13 C18.5 13.16 20.13 13.33 21.81 13.5 C22.67 13.58 23.52 13.66 24.4 13.75 C28.56 14.15 32.72 14.61 36.88 15.06 C38.34 15.22 39.8 15.37 41.3 15.54 C45 16 45 16 49 17 C49 16.34 49 15.68 49 15 C51.31 15.33 53.62 15.66 56 16 C52.61 18.54 50.48 19.75 46.62 21.12 C45.71 21.46 44.79 21.79 43.85 22.13 C26.13 27.52 2.48 24.16 -14 16 C-16.94 13.44 -16.94 13.44 -19 11 C-19 10.34 -19 9.68 -19 9 C-17.34 7.98 -15.68 6.98 -14 6 C-13.67 5.34 -13.34 4.68 -13 4 C-11.07 2.68 -11.07 2.68 -8.69 1.31 C-7.91 0.85 -7.13 0.4 -6.32 -0.07 C-4 -1 -4 -1 0 0 Z " fill="#A43EE7" transform="translate(220,279)"/><path d="M0 0 C1.08 0.02 2.16 0.04 3.27 0.05 C4.5 0.09 4.5 0.09 5.75 0.12 C5.16 6.02 1.87 8.29 -2.44 11.98 C-6.5 15.08 -10.56 17.16 -15.25 19.12 C-16.52 19.66 -16.52 19.66 -17.82 20.2 C-26.3 23.4 -34.01 23.6 -43 23.38 C-44.38 23.36 -45.75 23.34 -47.17 23.32 C-50.53 23.27 -53.89 23.21 -57.25 23.12 C-57.25 22.46 -57.25 21.81 -57.25 21.12 C-51.94 18.12 -51.94 18.12 -49.25 18.12 C-48.92 17.47 -48.59 16.81 -48.25 16.12 C-46.49 15.63 -46.49 15.63 -44.69 15.12 C-43.55 14.79 -42.42 14.47 -41.25 14.12 C-41.25 13.47 -41.25 12.81 -41.25 12.12 C-41.91 11.79 -42.57 11.47 -43.25 11.12 C-43.25 10.47 -43.25 9.81 -43.25 9.12 C-39.96 8.03 -38.54 8.33 -35.25 9.12 C-35.25 8.47 -35.25 7.81 -35.25 7.12 C-30.55 6.12 -30.55 6.12 -28.25 6.12 C-27.14 5.77 -26.02 5.42 -24.88 5.06 C-21.25 4.12 -21.25 4.12 -18.25 5.12 C-18.25 4.47 -18.25 3.81 -18.25 3.12 C-15.59 2.77 -12.92 2.44 -10.25 2.12 C-6.14 0.07 -4.45 -0.1 0 0 Z " fill="#E541A0" transform="translate(696.25,236.875)"/><path d="M0 0 C2.99 2.81 3.91 4.43 4.53 8.52 C4.52 9.75 4.51 10.98 4.5 12.25 C4.51 13.49 4.52 14.74 4.53 16.02 C4.27 17.49 4.27 17.49 4 19 C2.68 19.33 1.36 19.66 0 20 C0 20.66 0 21.32 0 22 C-0.66 22 -1.32 22 -2 22 C-2.33 22.99 -2.66 23.98 -3 25 C-3.66 25 -4.32 25 -5 25 C-5 25.66 -5 26.32 -5 27 C-8 28.06 -8 28.06 -12 29 C-13.38 29.39 -14.76 29.78 -16.19 30.19 C-18.07 30.09 -18.07 30.09 -20 30 C-23.35 24.58 -24.9 19.42 -25 13 C-23.42 6.78 -21.34 3.56 -16 0 C-10.79 -2.72 -5.35 -2.25 0 0 Z " fill="#FD8B04" transform="translate(501,135)"/><path d="M0 0 C2.49 2.49 2.84 4.45 3.81 7.81 C5.86 14.13 8.09 17.29 13.88 20.69 C17.07 22.11 17.07 22.11 20.88 23.06 C21.91 23.37 22.94 23.68 24 24 C24 24.66 24 25.32 24 26 C20.8 27.36 17.53 28.45 14.23 29.59 C10.05 31.42 7.86 33.29 5.8 37.37 C5.5 38.19 5.19 39.02 4.88 39.88 C4.55 40.75 4.22 41.62 3.88 42.52 C2.88 45.33 1.9 48.15 1 51 C-1.68 46.99 -2.93 42.68 -4.49 38.13 C-7.31 32.29 -12.08 30.3 -17.81 27.75 C-18.97 27.23 -20.14 26.71 -21.33 26.17 C-22.21 25.79 -23.09 25.4 -24 25 C-20.68 23.34 -17.47 22.05 -14 20.75 C-8.91 18.61 -6.28 17.23 -4 12 C-2.56 8.03 -1.23 4.04 0 0 Z " fill="#FEFDFD" transform="translate(256,86)"/><path d="M0 0 C2.95 2.95 3 5.02 3.38 9.19 C2.82 16.25 0.09 20.08 -5.06 24.81 C-13.4 29.45 -23.5 31.53 -33 30 C-36.38 27.81 -36.38 27.81 -38 25 C-37.23 21.93 -36.47 20.38 -34 18.38 C-17.36 9 -17.36 9 -13 9 C-12.67 8.01 -12.34 7.02 -12 6 C-9.53 4.9 -9.53 4.9 -6.5 3.94 C-4.65 3.34 -2.81 2.71 -1 2 C-0.67 1.34 -0.34 0.68 0 0 Z " fill="#F9645E" transform="translate(205,163)"/><path d="M0 0 C4.83 1.29 5.84 1.79 9 6 C9.35 8 9.68 10 10 12 C10.66 12 11.32 12 12 12 C12 10.68 12 9.36 12 8 C12.66 8 13.32 8 14 8 C13.88 11.88 13.88 11.88 13 16 C9.03 18.21 7.44 18.11 3 17 C-0.63 16.91 -0.63 16.91 -4 18 C-5.1 20.75 -5.1 20.75 -6 24 C-6.94 26.12 -7.92 28.23 -8.94 30.31 C-9.44 31.36 -9.95 32.41 -10.46 33.49 C-12 36 -12 36 -15 37 C-15.8 38.3 -16.61 39.6 -17.44 40.94 C-20 45 -20 45 -24 47 C-23.75 45.45 -23.75 45.45 -23.5 43.88 C-23.08 39.76 -23.12 36.17 -23.31 32.06 C-23.36 25.08 -21.77 21.05 -17 16 C-15.03 14.3 -13.03 12.63 -11 11 C-9.61 9.04 -8.27 7.04 -7 5 C-5 3 -5 3 -2.38 2.5 C-1.2 2.25 -1.2 2.25 0 2 C0 1.34 0 0.68 0 0 Z " fill="#FA569C" transform="translate(273,149)"/><path d="M0 0 C2.62 1.25 2.62 1.25 6.62 4.25 C7.38 8.94 7.38 8.94 7.62 13.25 C6.97 13.25 6.3 13.25 5.62 13.25 C5.32 14.24 5.01 15.23 4.69 16.25 C4.34 17.24 3.99 18.23 3.62 19.25 C2.63 19.25 1.64 19.25 0.62 19.25 C0.29 20.57 -0.03 21.89 -0.38 23.25 C-1.37 23.58 -2.36 23.91 -3.38 24.25 C-3.71 24.91 -4.03 25.57 -4.38 26.25 C-7.67 27.96 -10.24 29.28 -14 29.19 C-18.75 27.31 -23.39 23.52 -25.44 18.81 C-25.42 17.97 -25.4 17.12 -25.38 16.25 C-22.62 14.12 -22.62 14.12 -19.38 12.25 C-18.38 11.26 -17.39 10.27 -16.38 9.25 C-15.38 9.25 -14.39 9.25 -13.38 9.25 C-13.38 8.59 -13.38 7.93 -13.38 7.25 C-12.08 6.98 -10.78 6.71 -9.44 6.44 C-8.1 6.05 -6.76 5.65 -5.38 5.25 C-4.39 2.75 -4.39 2.75 -4.38 0.25 C-2.38 -0.75 -2.38 -0.75 0 0 Z " fill="#FA6281" transform="translate(690.375,142.75)"/><path d="M0 0 C2 1 2 1 3.38 4.38 C4.81 8.36 4.81 8.36 9 11 C13.23 12.44 14.74 12.12 18.88 10.25 C20.24 9.51 21.6 8.76 23 8 C27.04 6.22 30.15 5.04 34.56 4.81 C35.37 5.2 36.17 5.6 37 6 C36.94 9.7 36.67 12.66 35 16 C33.73 16.25 33.73 16.25 32.44 16.5 C31.23 16.75 31.23 16.75 30 17 C30 17.66 30 18.32 30 19 C27.65 19.7 27.65 19.7 24.38 20.32 C23.22 20.55 22.05 20.77 20.86 21 C19.62 21.23 18.39 21.45 17.12 21.69 C15.9 21.93 14.68 22.16 13.42 22.41 C4.27 24.13 4.27 24.13 2 23 C2 24.32 2 25.64 2 27 C1.34 27 0.68 27 0 27 C-0.52 25.6 -1.03 24.19 -1.56 22.75 C-3.24 18.68 -4.7 17.18 -8.75 15.44 C-10.15 14.96 -11.56 14.49 -13 14 C-11 12 -11 12 -7.62 10.94 C-2.51 8.2 -1.94 5.37 0 0 Z " fill="#FB589B" transform="translate(283,134)"/><path d="M0 0 C4.97 0 6.27 0.07 10 3 C11.68 5.9 12.05 7.47 11.75 10.81 C11.5 11.53 11.25 12.26 11 13 C10.34 13 9.68 13 9 13 C9.33 14.32 9.66 15.64 10 17 C8.02 17.72 6.01 18.38 4 19 C3.01 20.32 2.02 21.64 1 23 C0.34 23 -0.32 23 -1 23 C-1 24.65 -1 26.3 -1 28 C-1.99 28.33 -2.98 28.66 -4 29 C-4.33 29.66 -4.66 30.32 -5 31 C-9.8 29.8 -10.28 28.72 -13 24.75 C-15.01 21.84 -17 19 -19.25 16.27 C-21 14 -21 14 -21 12 C-19.33 11.67 -17.67 11.33 -16 11 C-14.3 10.06 -12.63 9.05 -11 8 C-4.26 4 -4.26 4 -2 4 C-1.34 2.68 -0.68 1.36 0 0 Z " fill="#F84AA2" transform="translate(749,154)"/><path d="M0 0 C3.55 -0.15 7.02 -0.18 10.56 -0.12 C11.56 -0.12 12.56 -0.11 13.58 -0.1 C16.06 -0.07 18.53 -0.04 21 0 C21 0.33 21 0.66 21 1 C18.67 1.35 16.33 1.68 14 2 C13.34 2.33 12.68 2.66 12 3 C12 4.32 12 5.64 12 7 C11.01 7.33 10.02 7.66 9 8 C8.81 9.45 8.81 9.45 8.62 10.94 C8.42 11.95 8.21 12.96 8 14 C5.06 15.82 2.7 16.03 -0.75 16.38 C-1.82 16.58 -2.89 16.79 -4 17 C-4.33 18.32 -4.66 19.64 -5 21 C-7.67 22.33 -10.33 23.67 -13 25 C-13 25.66 -13 26.32 -13 27 C-15.97 27 -18.94 27 -22 27 C-22 27.66 -22 28.32 -22 29 C-21.34 28.67 -20.68 28.34 -20 28 C-17.96 27.93 -15.92 27.92 -13.88 27.94 C-12.78 27.95 -11.68 27.96 -10.55 27.96 C-9.71 27.98 -8.87 27.99 -8 28 C-8 28.66 -8 29.32 -8 30 C-10.64 30.11 -13.29 30.19 -15.94 30.25 C-17.41 30.3 -18.88 30.34 -20.4 30.39 C-21.59 30.26 -22.78 30.13 -24 30 C-24.33 28.68 -24.66 27.36 -25 26 C-25.99 25.67 -26.98 25.34 -28 25 C-27.01 23.51 -27.01 23.51 -26 22 C-25.34 22 -24.68 22 -24 22 C-24 21.01 -24 20.02 -24 19 C-21.69 17.95 -19.35 16.95 -17 16 C-16.67 15.34 -16.34 14.68 -16 14 C-12 12 -12 12 -9 11 C-8.67 9.68 -8.34 8.36 -8 7 C-5.71 5.28 -3.37 3.61 -1 2 C-0.67 1.34 -0.34 0.68 0 0 Z " fill="#9C3DF1" transform="translate(879,229)"/><path d="M0 0 C-1.62 2.04 -3.29 4.04 -5 6 C-5.66 6 -6.32 6 -7 6 C-7.33 7.32 -7.66 8.64 -8 10 C-9.67 12.37 -9.67 12.37 -11.75 14.88 C-12.47 15.75 -13.19 16.62 -13.93 17.52 C-15.6 19.52 -17.27 21.51 -18.94 23.5 C-21 25.8 -21 25.8 -22 28 C-27.27 28.5 -28.61 28.29 -33 25 C-33.93 24.9 -34.86 24.79 -35.81 24.69 C-36.53 24.46 -37.26 24.23 -38 24 C-38.37 19.03 -35.63 14.92 -32.87 10.98 C-29.79 7.71 -26.27 7.04 -22 6 C-18.38 4.66 -14.76 3.3 -11.16 1.89 C-10.18 1.51 -9.2 1.14 -8.19 0.75 C-6.82 0.22 -6.82 0.22 -5.42 -0.33 C-3 -1 -3 -1 0 0 Z " fill="#E046C5" transform="translate(277,196)"/><path d="M0 0 C4 1 4 1 7.56 3.81 C17.05 11.04 27.28 12.29 39 11 C42.13 10.03 42.13 10.03 44.88 8.75 C46.24 8.17 47.6 7.6 49 7 C49.66 8.32 50.32 9.64 51 11 C49.1 16.17 44.62 19.3 40 22 C31.75 24.87 24.45 23.94 16.56 20.5 C15.72 20 14.87 19.51 14 19 C12.68 18.34 11.36 17.68 10 17 C7.78 14.02 6.18 11.53 5 8 C4.34 8 3.68 8 3 8 C2.64 6.34 2.31 4.67 2 3 C1.34 2.01 0.68 1.02 0 0 Z " fill="#6627C6" transform="translate(207,259)"/><path d="M0 0 C3.41 3.41 4.95 6.6 7.06 10.94 C7.75 12.35 8.45 13.76 9.16 15.21 C9.77 16.46 10.37 17.71 11 19 C11.66 20.32 12.32 21.64 13 23 C11.75 25.75 11.75 25.75 10 28 C9.34 28 8.68 28 8 28 C6.89 31.2 6.89 31.2 7 35 C9.29 38.43 9.29 38.43 12 41 C11.24 41.25 10.47 41.5 9.69 41.75 C4.76 43.42 -0.12 45.21 -5 47 C-4.68 44.61 -4.68 44.61 -4 42 C-0.79 39.98 1.19 39 5 39 C3.35 38.67 1.7 38.34 0 38 C0.99 37.5 0.99 37.5 2 37 C1.12 34.64 1.12 34.64 -0.31 31.94 C-2.58 27.19 -3.56 23.28 -4 18 C-4.35 16.82 -4.7 15.65 -5.06 14.44 C-6.08 10.69 -6.52 7.86 -6 4 C-3.56 2.12 -3.56 2.12 -1 1 C-0.67 0.67 -0.34 0.34 0 0 Z " fill="#FB7578" transform="translate(82,241)"/><path d="M0 0 C0.33 0 0.66 0 1 0 C1.93 13.25 -3.12 25.37 -9 37 C-9.74 36.37 -10.47 35.73 -11.23 35.08 C-14.67 32.5 -17.82 31.85 -22 31 C-21.34 29.68 -20.68 28.36 -20 27 C-20 25.68 -20 24.36 -20 23 C-18.35 23 -16.7 23 -15 23 C-15.66 21.68 -16.32 20.36 -17 19 C-15.68 18.67 -14.36 18.34 -13 18 C-13 17.34 -13 16.68 -13 16 C-13.99 16.33 -14.98 16.66 -16 17 C-15.35 12.54 -14.45 8.27 -13 4 C-12.34 4 -11.68 4 -11 4 C-11 3.34 -11 2.68 -11 2 C-10.29 2.19 -9.58 2.38 -8.85 2.58 C-7.93 2.8 -7.01 3.02 -6.06 3.25 C-5.15 3.48 -4.23 3.71 -3.29 3.95 C-2.53 3.97 -1.78 3.98 -1 4 C-0.67 2.68 -0.34 1.36 0 0 Z " fill="#8639EA" transform="translate(325,246)"/><path d="M0 0 C0.68 0.35 1.35 0.7 2.05 1.06 C2.94 1.51 3.83 1.97 4.75 2.44 C5.63 2.89 6.51 3.34 7.42 3.81 C12.42 6.12 16.83 6.11 22.25 6.06 C24.42 6.05 24.42 6.05 26.64 6.04 C28.3 6.02 28.3 6.02 30 6 C29.34 6.33 28.68 6.66 28 7 C28 7.66 28 8.32 28 9 C24.04 8.67 20.08 8.34 16 8 C16 8.66 16 9.32 16 10 C13.86 12.62 12.69 13.87 9.31 14.5 C8.55 14.66 7.79 14.83 7 15 C6.67 16.32 6.34 17.64 6 19 C-0.23 25 -0.23 25 -4 25 C-4 25.66 -4 26.32 -4 27 C-9.5 29.62 -9.5 29.62 -13 30 C-17.06 27.69 -17.06 27.69 -20 25 C-19.34 24.67 -18.68 24.34 -18 24 C-18 23.34 -18 22.68 -18 22 C-17.34 22 -16.68 22 -16 22 C-15.34 20.68 -14.68 19.36 -14 18 C-13.67 17.34 -13.34 16.68 -13 16 C-11.68 15.67 -10.36 15.34 -9 15 C-7.68 14.01 -6.36 13.02 -5 12 C-5 11.01 -5 10.02 -5 9 C-3.02 7.97 -1.02 6.97 1 6 C1 5.34 1 4.68 1 4 C0.34 4 -0.32 4 -1 4 C-0.67 2.68 -0.34 1.36 0 0 Z " fill="#FB5FA0" transform="translate(634,223)"/><path d="M0 0 C0.66 0.99 1.32 1.98 2 3 C3.29 4.75 4.58 6.5 5.88 8.25 C8.88 12.37 11.6 16.49 14 21 C12.92 21.29 12.92 21.29 11.81 21.59 C10.88 21.85 9.96 22.11 9 22.38 C8.07 22.63 7.14 22.89 6.19 23.15 C5.47 23.43 4.74 23.71 4 24 C4 24.66 4 25.32 4 26 C1.68 27.36 -0.65 28.7 -3 30 C-3 30.33 -3 30.66 -3 31 C-7.31 32.12 -9.34 32.33 -13.38 30.31 C-16 28 -16 28 -17 24 C-16.67 22.68 -16.34 21.36 -16 20 C-15.01 20 -14.02 20 -13 20 C-13 19.34 -13 18.68 -13 18 C-11.68 17.67 -10.36 17.34 -9 17 C-9.33 16.01 -9.66 15.02 -10 14 C-8.34 13.32 -6.67 12.65 -5 12 C-5 11.01 -5 10.02 -5 9 C-3.68 8.67 -2.36 8.34 -1 8 C-0.17 3.98 -0.17 3.98 0 0 Z " fill="#DA49D7" transform="translate(793,195)"/><path d="M0 0 C-2 4 -2 4 -5.12 5.25 C-6.07 5.5 -7.02 5.75 -8 6 C-7.34 7.65 -6.68 9.3 -6 11 C-7.01 11.14 -8.02 11.29 -9.06 11.44 C-13.89 13.35 -15.47 15.7 -18.32 19.91 C-20 22 -20 22 -24 24 C-25.11 26.39 -25.11 26.39 -26 29 C-26.99 30.32 -27.98 31.64 -29 33 C-30.32 32.67 -31.64 32.34 -33 32 C-34.42 29.17 -34.35 26.53 -34.56 23.38 C-34.65 22.19 -34.73 21 -34.82 19.77 C-34.91 18.4 -34.91 18.4 -35 17 C-34.67 17.66 -34.34 18.32 -34 19 C-33.24 18.2 -32.47 17.39 -31.69 16.56 C-29 14 -29 14 -26 13 C-25.67 12.01 -25.34 11.02 -25 10 C-22.7 8.94 -20.36 7.94 -18 7 C-17.18 6.46 -16.35 5.93 -15.5 5.38 C-13 4 -13 4 -9.44 3.5 C-5.55 2.93 -3.7 0 0 0 Z " fill="#FA607F" transform="translate(280,141)"/><path d="M0 0 C4.51 1.49 5.7 3.89 8.19 7.86 C8.99 9.11 9.8 10.35 10.62 11.63 C11.14 12.76 11.66 13.89 12.19 15.05 C10.85 17.72 9.52 20.38 8.19 23.05 C7.92 24.29 7.65 25.53 7.38 26.8 C6.79 28.41 6.79 28.41 6.19 30.05 C4.54 30.05 2.89 30.05 1.19 30.05 C0.53 29.39 -0.13 28.73 -0.81 28.05 C-1.47 28.05 -2.13 28.05 -2.81 28.05 C-4.67 19.55 -5.28 10.73 -4.81 2.05 C-2.81 0.05 -2.81 0.05 0 0 Z " fill="#E441A0" transform="translate(183.8125,224.94921875)"/><path d="M0 0 C4.03 2.19 6.77 4.77 10 8 C12.64 10.11 15.3 12.18 17.99 14.23 C18.65 14.81 19.32 15.4 20 16 C20 16.66 20 17.32 20 18 C19.01 18 18.02 18 17 18 C16.67 19.32 16.34 20.64 16 22 C15.34 22.99 14.68 23.98 14 25 C7.03 24.57 1.48 19.25 -3.62 14.94 C-6 12 -6 12 -6.06 9.31 C-5 7 -5 7 -2 4 C-1.34 2.68 -0.68 1.36 0 0 Z " fill="#FA579C" transform="translate(94,264)"/><path d="M0 0 C0.5 1.48 0.5 1.48 1 3 C-3 6 -3 6 -5 6 C-5.72 8.32 -6.38 10.65 -7 13 C-9.63 20.26 -9.63 20.26 -11 23 C-12.32 22.67 -13.64 22.34 -15 22 C-15.45 21.13 -15.91 20.27 -16.38 19.38 C-16.91 18.59 -17.45 17.81 -18 17 C-22.36 17 -25.53 18.42 -29 21 C-29.33 21.99 -29.66 22.98 -30 24 C-32 24 -32 24 -33.62 22.39 C-34.52 21.33 -34.52 21.33 -35.44 20.25 C-36.03 19.55 -36.63 18.86 -37.25 18.14 C-38.89 16.14 -40.45 14.07 -42 12 C-36.32 9.49 -32.03 7.69 -25.81 8.56 C-24.22 8.71 -22.64 8.85 -21 9 C-20.67 8.34 -20.34 7.68 -20 7 C-19.67 7.66 -19.34 8.32 -19 9 C-18.34 8.34 -17.68 7.68 -17 7 C-15.35 10.96 -13.7 14.92 -12 19 C-11.59 17.49 -11.18 15.99 -10.75 14.44 C-6.41 0 -6.41 0 0 0 Z " fill="#FC8623" transform="translate(269,116)"/><path d="M0 0 C1.17 0.02 2.34 0.04 3.55 0.05 C4.88 0.09 4.88 0.09 6.25 0.12 C6 2.5 6 2.5 5.25 5.12 C3.27 6.12 3.27 6.12 1.25 7.12 C-0.85 9.99 -0.85 9.99 -1.75 13.12 C-2.74 13.62 -2.74 13.62 -3.75 14.12 C-4.2 14.97 -4.66 15.82 -5.12 16.69 C-5.66 17.49 -6.2 18.3 -6.75 19.12 C-8.07 19.12 -9.39 19.12 -10.75 19.12 C-10.42 20.44 -10.09 21.76 -9.75 23.12 C-11.73 24.12 -11.73 24.12 -13.75 25.12 C-17.11 20.64 -17.59 18.64 -17.75 13.12 C-16.27 8.45 -14.55 5.24 -10.75 2.12 C-6.53 0.01 -4.61 -0.09 0 0 Z " fill="#E049C6" transform="translate(852.75,133.875)"/><path d="M0 0 C0.33 0 0.66 0 1 0 C1.16 1.67 1.25 3.35 1.32 5.03 C1.36 6.07 1.4 7.11 1.44 8.18 C1.48 9.27 1.52 10.37 1.56 11.5 C1.61 12.6 1.65 13.69 1.69 14.82 C1.8 17.55 1.9 20.27 2 23 C2.33 22.01 2.66 21.02 3 20 C3.66 20 4.32 20 5 20 C5 19.34 5 18.68 5 18 C8 17.67 11 17.33 14 17 C14 16.34 14 15.68 14 15 C15.28 15.14 16.56 15.29 17.88 15.44 C19.24 15.29 20.6 15.15 22 15 C23.27 11.67 23.27 11.67 24 8 C26.25 6.19 26.25 6.19 29 5 C30.05 4.5 31.1 4.01 32.19 3.5 C33.58 3.25 33.58 3.25 35 3 C36.69 5.12 36.69 5.12 37 8 C33.86 11.33 30.05 12.98 26 15 C25.01 15.99 24.02 16.98 23 18 C22.34 18 21.68 18 21 18 C21.33 18.99 21.66 19.98 22 21 C19.81 22 19.81 22 17 23 C15.68 23.99 14.36 24.98 13 26 C8.82 28.09 8.2 28.17 4 27 C4.33 27.99 4.66 28.98 5 30 C4.01 30.33 3.02 30.66 2 31 C2 32.65 2 34.3 2 36 C1.34 36 0.68 36 0 36 C0 24.12 0 12.24 0 0 Z " fill="#8639E9" transform="translate(938,182)"/><path d="M0 0 C-0.33 1.32 -0.66 2.64 -1 4 C-3.4 5.16 -3.4 5.16 -6.38 6.06 C-10.44 7.31 -11.89 7.89 -15 11 C-17.6 12.39 -20.23 13.72 -22.88 15 C-30.98 18.68 -30.98 18.68 -38 24 C-39.42 19.64 -39.07 18.14 -37 13.94 C-29.94 4.67 -20.41 2.21 -9.28 0.39 C-6.15 0.02 -3.15 -0.08 0 0 Z " fill="#FC7D42" transform="translate(205,162)"/><path d="M0 0 C3.92 3.92 3.92 3.92 4.25 8.25 C3.87 14.01 2.19 16.88 -2 20.81 C-5.84 23.61 -8.37 24.14 -13 24.12 C-14.3 24.13 -14.3 24.13 -15.62 24.13 C-18 24 -18 24 -21 23 C-21 22.01 -21 21.02 -21 20 C-22.32 19.01 -23.64 18.02 -25 17 C-21.32 16.08 -19.84 16.04 -16 17 C-16.33 16.01 -16.66 15.02 -17 14 C-15.33 13.6 -15.33 13.6 -13.62 13.19 C-9.78 12.34 -9.78 12.34 -8 9 C-5 6 -5 6 -2 5 C-1.01 5.33 -0.02 5.66 1 6 C1 5.01 1 4.02 1 3 C0.34 2.67 -0.32 2.34 -1 2 C-0.67 1.34 -0.34 0.68 0 0 Z " fill="#A73FE6" transform="translate(822,236)"/><path d="M0 0 C-0.33 0.99 -0.66 1.98 -1 3 C-2.32 3.33 -3.64 3.66 -5 4 C-4.5 5.48 -4.5 5.48 -4 7 C-7.23 9.71 -10.66 12.03 -14.12 14.43 C-15.55 15.7 -15.55 15.7 -17 17 C-17 18.65 -17 20.3 -17 22 C-20.49 25.57 -23.08 27.35 -28 28 C-32 29.5 -32 29.5 -33 32 C-34.98 32.5 -34.98 32.5 -37 33 C-39.38 29.31 -39.38 29.31 -41 25 C-38.47 19.93 -36.16 19.11 -31 17 C-27 18 -27 18 -25.44 20.5 C-24.96 21.32 -24.49 22.15 -24 23 C-23.01 23.33 -22.02 23.66 -21 24 C-20.75 22.68 -20.5 21.36 -20.25 20 C-18.94 14.21 -17.36 8.64 -12.31 5.12 C-11.55 4.75 -10.79 4.38 -10 4 C-9.67 3.34 -9.34 2.68 -9 2 C-2.89 0 -2.89 0 0 0 Z " fill="#FC7E41" transform="translate(279,115)"/><path d="M0 0 C3.3 0.33 6.6 0.66 10 1 C8.41 7.37 4.85 11.58 -0.25 15.5 C-5.03 17.41 -8.92 17.81 -14 17 C-18.96 14.83 -20.56 13.89 -23 9 C-21.91 8.86 -20.81 8.71 -19.69 8.56 C-16.07 8.12 -16.07 8.12 -13 7 C-13 7.66 -13 8.32 -13 9 C-13.66 9.66 -14.32 10.32 -15 11 C-11.7 11 -8.4 11 -5 11 C-5 10.34 -5 9.68 -5 9 C-6.65 9 -8.3 9 -10 9 C-9.67 8.01 -9.34 7.02 -9 6 C-7.68 6.33 -6.36 6.66 -5 7 C-4.67 6.01 -4.34 5.02 -4 4 C-2.68 3.67 -1.36 3.34 0 3 C0 2.01 0 1.02 0 0 Z " fill="#C33BC2" transform="translate(743,243)"/><path d="M0 0 C2.12 1.06 2.12 1.06 3.09 3.36 C3.1 4.25 3.11 5.14 3.12 6.06 C0.95 8.2 0.95 8.2 -2.19 10.31 C-6.57 13.35 -10.4 16.44 -14.19 20.19 C-18.34 24.05 -18.34 24.05 -23 24.12 C-24.42 23.6 -24.42 23.6 -25.88 23.06 C-23.27 13.8 -13.83 6.72 -6.25 1.62 C-2.88 0.06 -2.88 0.06 0 0 Z " fill="#FEFDFD" transform="translate(117.875,107.9375)"/><path d="M0 0 C1.65 0 3.3 0 5 0 C4.04 2.08 3.08 4.17 2.12 6.25 C1.59 7.41 1.06 8.57 0.51 9.77 C-0.62 12.19 -1.8 14.6 -3 17 C-3.99 17.33 -4.98 17.66 -6 18 C-6.8 19.3 -7.61 20.6 -8.44 21.94 C-11 26 -11 26 -15 28 C-14.75 26.45 -14.75 26.45 -14.5 24.88 C-13.89 20.23 -13.89 20.23 -14.21 16.46 C-14.43 12.85 -14.56 9.57 -14 6 C-10.31 3.75 -10.31 3.75 -6 3 C-2.74 1.91 -2.74 1.91 0 0 Z " fill="#F84AA2" transform="translate(264,168)"/><path d="M0 0 C0.33 0.99 0.66 1.98 1 3 C3.54 3.29 6.09 3.57 8.65 3.69 C11 4 11 4 13 6 C14.27 10.86 15 14.97 15 20 C14.39 19.59 13.78 19.18 13.16 18.75 C6.09 14.09 -1.21 10.37 -8.89 6.8 C-9.91 6.2 -10.94 5.61 -12 5 C-12 4.01 -12 3.02 -12 2 C-8 0.19 -4.37 -0.51 0 0 Z " fill="#C13AC0" transform="translate(245,220)"/><path d="M0 0 C2 1 2 1 3.38 4.38 C4.81 8.36 4.81 8.36 9 11 C10.98 11.72 12.98 12.4 15 13 C12 15 12 15 9 16.31 C5.63 18.21 4.6 19.54 3 23 C2.67 24.32 2.34 25.64 2 27 C1.34 27 0.68 27 0 27 C-0.52 25.6 -1.03 24.19 -1.56 22.75 C-3.24 18.68 -4.7 17.18 -8.75 15.44 C-10.15 14.96 -11.56 14.49 -13 14 C-11 12 -11 12 -7.62 10.94 C-2.51 8.2 -1.94 5.37 0 0 Z " fill="#FEFDFD" transform="translate(283,134)"/><path d="M0 0 C0.33 0.66 0.66 1.32 1 2 C0.01 2.7 -0.98 3.4 -2 4.12 C-5.26 6.47 -7.29 8.31 -9.81 11.31 C-11.39 13.14 -11.39 13.14 -13 15 C-13.66 15 -14.32 15 -15 15 C-16.11 12.66 -16.11 12.66 -17.19 9.62 C-17.73 8.13 -17.73 8.13 -18.29 6.6 C-19 4 -19 4 -18 2 C-15.01 1.62 -12 1.29 -9 1 C-5.99 -0.5 -3.31 -0.18 0 0 Z " fill="#F9645E" transform="translate(261,145)"/><path d="M0 0 C3.06 4.08 6.06 8.21 9.06 12.34 C10.69 14.58 12.34 16.79 14 19 C13.24 19.25 12.47 19.5 11.69 19.75 C6.76 21.42 1.88 23.21 -3 25 C-2.68 22.61 -2.68 22.61 -2 20 C1.21 17.98 3.19 17 7 17 C5.35 16.67 3.7 16.34 2 16 C2.66 15.67 3.32 15.34 4 15 C2.87 12.15 1.46 9.49 0.07 6.76 C-1 4 -1 4 0 0 Z " fill="#FA6080" transform="translate(80,263)"/><path d="M0 0 C2.62 0 2.62 0 5 1 C6.21 5.82 5.43 6.98 3.25 11.31 C2.45 12.95 2.45 12.95 1.64 14.61 C1.1 15.4 0.56 16.19 0 17 C-0.99 16.67 -1.98 16.34 -3 16 C-3.33 15.01 -3.66 14.02 -4 13 C-4.66 13 -5.32 13 -6 13 C-4.38 7.75 -3.34 4.45 0 0 Z " fill="#FC7670" transform="translate(88,135)"/><path d="M0 0 C3 3 3 3 5 6 C6.32 6.66 7.64 7.32 9 8 C8.24 8.72 7.47 9.44 6.69 10.19 C4.29 12.7 2.65 14.97 1 18 C0.34 17.01 -0.32 16.02 -1 15 C-3.57 12.3 -5.9 10.07 -9 8 C-7.61 7.41 -7.61 7.41 -6.19 6.81 C-2.77 4.87 -1.69 3.47 0 0 Z " fill="#FEFDFD" transform="translate(284,174)"/><path d="M0 0 C0.33 0.99 0.66 1.98 1 3 C-3 6 -3 6 -5 6 C-5.72 8.32 -6.38 10.65 -7 13 C-9.63 20.26 -9.63 20.26 -11 23 C-15 22 -15 22 -17 19 C-17.41 16.08 -17.41 16.08 -17.62 12.81 C-17.7 11.73 -17.77 10.64 -17.85 9.52 C-17.9 8.69 -17.95 7.86 -18 7 C-15.72 9.28 -15.03 11.13 -13.88 14.12 C-13.52 15.04 -13.17 15.95 -12.8 16.88 C-12.54 17.58 -12.27 18.28 -12 19 C-11.59 17.49 -11.18 15.99 -10.75 14.44 C-6.41 0 -6.41 0 0 0 Z " fill="#FD9518" transform="translate(269,116)"/><path d="M0 0 C0.99 0.33 1.98 0.66 3 1 C3.87 3.58 3.87 3.58 4.44 6.81 C4.64 7.87 4.85 8.93 5.06 10.02 C5 13 5 13 3.29 15.32 C1 17 1 17 -3 18 C-3.32 11.42 -3.57 5.82 0 0 Z " fill="#FD7860" transform="translate(78,228)"/><path d="M0 0 C0.66 0.66 1.32 1.32 2 2 C1.21 2.23 0.43 2.46 -0.38 2.7 C-6.8 4.69 -11.79 6.73 -17 11 C-17.33 9.68 -17.66 8.36 -18 7 C-13.27 -0.36 -8.04 -0.41 0 0 Z " fill="#FC8711" transform="translate(184,156)"/><path d="M0 0 C2.31 0.33 4.62 0.66 7 1 C0.14 6.15 0.14 6.15 -4.75 5.81 C-8.94 4.76 -12.94 3.48 -17 2 C-17 1.67 -17 1.34 -17 1 C-14.92 0.97 -12.83 0.95 -10.75 0.94 C-9.59 0.93 -8.43 0.91 -7.23 0.9 C-4 1 -4 1 0 2 C0 1.34 0 0.68 0 0 Z " fill="#9B3DF2" transform="translate(269,294)"/><path d="M0 0 C0.33 0 0.66 0 1 0 C1.21 4.56 1.32 9.11 1.43 13.67 C2.03 18.22 2.53 19.26 6 22 C6 22.66 6 23.32 6 24 C4.68 24 3.36 24 2 24 C2 24.66 2 25.32 2 26 C-0.38 25.69 -0.38 25.69 -3 25 C-3.66 24.01 -4.32 23.02 -5 22 C-3.35 21.67 -1.7 21.34 0 21 C-0.17 20.35 -0.35 19.69 -0.52 19.02 C-1.13 15.16 -0.89 11.59 -0.62 7.69 C-0.53 6.25 -0.44 4.81 -0.35 3.32 C-0.24 2.23 -0.12 1.13 0 0 Z " fill="#FDB24D" transform="translate(399,170)"/></svg>